<?xml version="1.0" encoding="UTF-8"?>
<svg xmlns="http://www.w3.org/2000/svg" width="1254" height="1254" viewBox="0 0 1254 1254" role="img" aria-label="Casa Baglioni family crest">
 <rect width="100%" height="100%" fill="#f3eadc"/>
 <path d="M 624.0 1116.0 L 631.0 1116.0 L 636.0 1121.0 L 636.0 1122.0 L 637.0 1123.0 L 637.0 1128.0 L 636.0 1129.0 L 635.0 1132.0 L 631.0 1135.0 L 624.0 1135.0 L 623.0 1134.0 L 622.0 1134.0 L 619.0 1131.0 L 619.0 1130.0 L 618.0 1129.0 L 618.0 1126.0 L 617.0 1125.0 L 618.0 1124.0 L 618.0 1121.0 L 622.0 1117.0 L 623.0 1117.0 Z M 627.0 1044.0 L 628.0 1045.0 L 628.0 1046.0 L 629.0 1047.0 L 629.0 1048.0 L 635.0 1059.0 L 635.0 1061.0 L 636.0 1062.0 L 636.0 1066.0 L 637.0 1067.0 L 637.0 1072.0 L 643.0 1072.0 L 644.0 1073.0 L 647.0 1074.0 L 651.0 1078.0 L 651.0 1079.0 L 653.0 1081.0 L 652.0 1082.0 L 646.0 1082.0 L 645.0 1083.0 L 642.0 1084.0 L 638.0 1087.0 L 638.0 1088.0 L 636.0 1090.0 L 636.0 1091.0 L 634.0 1093.0 L 634.0 1094.0 L 632.0 1097.0 L 632.0 1099.0 L 631.0 1100.0 L 631.0 1103.0 L 629.0 1106.0 L 625.0 1106.0 L 624.0 1105.0 L 624.0 1102.0 L 622.0 1099.0 L 622.0 1097.0 L 621.0 1096.0 L 619.0 1091.0 L 615.0 1086.0 L 614.0 1086.0 L 610.0 1083.0 L 608.0 1083.0 L 607.0 1082.0 L 603.0 1082.0 L 602.0 1081.0 L 603.0 1078.0 L 609.0 1073.0 L 611.0 1073.0 L 612.0 1072.0 L 618.0 1072.0 L 618.0 1063.0 L 619.0 1062.0 L 620.0 1057.0 L 621.0 1056.0 L 621.0 1055.0 Z M 605.0 983.0 L 605.0 984.0 L 606.0 984.0 L 608.0 986.0 L 608.0 1006.0 L 607.0 1007.0 L 607.0 1008.0 L 605.0 1010.0 L 604.0 1010.0 L 604.0 1011.0 L 613.0 1011.0 L 614.0 1012.0 L 625.0 1012.0 L 626.0 1011.0 L 626.0 1005.0 L 625.0 1005.0 L 625.0 1006.0 L 622.0 1009.0 L 613.0 1009.0 L 612.0 1008.0 L 612.0 999.0 L 613.0 998.0 L 619.0 998.0 L 620.0 999.0 L 620.0 1000.0 L 621.0 1001.0 L 622.0 1001.0 L 622.0 993.0 L 621.0 993.0 L 619.0 996.0 L 614.0 996.0 L 613.0 995.0 L 613.0 987.0 L 614.0 986.0 L 622.0 986.0 L 624.0 988.0 L 624.0 990.0 L 625.0 990.0 L 625.0 983.0 Z M 653.0 982.0 L 650.0 982.0 L 649.0 983.0 L 646.0 983.0 L 643.0 986.0 L 643.0 987.0 L 642.0 988.0 L 642.0 992.0 L 643.0 993.0 L 643.0 994.0 L 646.0 997.0 L 652.0 999.0 L 656.0 1003.0 L 656.0 1006.0 L 653.0 1009.0 L 648.0 1009.0 L 644.0 1005.0 L 644.0 1004.0 L 643.0 1004.0 L 643.0 1011.0 L 649.0 1011.0 L 650.0 1012.0 L 651.0 1012.0 L 652.0 1011.0 L 655.0 1011.0 L 656.0 1010.0 L 657.0 1010.0 L 660.0 1007.0 L 660.0 1005.0 L 661.0 1004.0 L 660.0 999.0 L 657.0 996.0 L 656.0 996.0 L 655.0 995.0 L 653.0 995.0 L 652.0 994.0 L 649.0 993.0 L 646.0 990.0 L 646.0 987.0 L 650.0 984.0 L 652.0 984.0 L 653.0 985.0 L 654.0 985.0 L 656.0 987.0 L 656.0 988.0 L 657.0 989.0 L 658.0 989.0 L 658.0 983.0 L 654.0 983.0 Z M 696.0 977.0 L 693.0 977.0 L 692.0 978.0 L 687.0 978.0 L 686.0 979.0 L 681.0 979.0 L 680.0 980.0 L 673.0 980.0 L 672.0 981.0 L 672.0 984.0 L 673.0 985.0 L 673.0 988.0 L 674.0 988.0 L 674.0 986.0 L 677.0 982.0 L 682.0 982.0 L 683.0 983.0 L 683.0 988.0 L 684.0 989.0 L 684.0 995.0 L 685.0 996.0 L 685.0 1001.0 L 686.0 1002.0 L 686.0 1004.0 L 684.0 1006.0 L 683.0 1006.0 L 683.0 1007.0 L 689.0 1007.0 L 690.0 1006.0 L 694.0 1006.0 L 694.0 1004.0 L 692.0 1004.0 L 690.0 1002.0 L 690.0 997.0 L 689.0 996.0 L 689.0 991.0 L 688.0 990.0 L 688.0 984.0 L 687.0 983.0 L 687.0 982.0 L 689.0 980.0 L 694.0 980.0 L 696.0 982.0 L 696.0 983.0 L 697.0 983.0 L 697.0 978.0 Z M 558.0 977.0 L 554.0 980.0 L 554.0 981.0 L 553.0 982.0 L 553.0 987.0 L 556.0 991.0 L 557.0 991.0 L 563.0 996.0 L 563.0 997.0 L 564.0 998.0 L 564.0 1000.0 L 562.0 1003.0 L 560.0 1003.0 L 559.0 1004.0 L 558.0 1004.0 L 557.0 1003.0 L 556.0 1003.0 L 552.0 999.0 L 552.0 996.0 L 551.0 996.0 L 551.0 997.0 L 550.0 998.0 L 550.0 1003.0 L 552.0 1003.0 L 553.0 1004.0 L 554.0 1004.0 L 555.0 1005.0 L 557.0 1005.0 L 558.0 1006.0 L 562.0 1006.0 L 567.0 1003.0 L 567.0 1002.0 L 568.0 1001.0 L 568.0 994.0 L 564.0 990.0 L 563.0 990.0 L 558.0 985.0 L 558.0 984.0 L 557.0 983.0 L 559.0 980.0 L 560.0 980.0 L 561.0 979.0 L 563.0 979.0 L 567.0 982.0 L 567.0 983.0 L 568.0 984.0 L 568.0 986.0 L 569.0 986.0 L 569.0 983.0 L 570.0 982.0 L 570.0 979.0 L 568.0 979.0 L 565.0 977.0 Z M 744.0 967.0 L 747.0 970.0 L 747.0 971.0 L 748.0 972.0 L 748.0 975.0 L 744.0 979.0 L 742.0 979.0 L 741.0 980.0 L 739.0 977.0 L 739.0 974.0 L 738.0 973.0 L 738.0 971.0 L 737.0 970.0 L 737.0 969.0 L 740.0 967.0 Z M 514.0 965.0 L 514.0 966.0 L 516.0 968.0 L 516.0 970.0 L 515.0 971.0 L 515.0 973.0 L 514.0 974.0 L 514.0 976.0 L 513.0 977.0 L 513.0 979.0 L 512.0 980.0 L 512.0 983.0 L 511.0 984.0 L 511.0 989.0 L 514.0 994.0 L 515.0 994.0 L 518.0 996.0 L 520.0 996.0 L 521.0 997.0 L 526.0 997.0 L 527.0 996.0 L 528.0 996.0 L 532.0 992.0 L 532.0 990.0 L 533.0 989.0 L 533.0 987.0 L 534.0 986.0 L 534.0 983.0 L 535.0 982.0 L 536.0 977.0 L 538.0 974.0 L 541.0 974.0 L 541.0 973.0 L 539.0 973.0 L 538.0 972.0 L 536.0 972.0 L 535.0 971.0 L 532.0 971.0 L 532.0 972.0 L 534.0 974.0 L 534.0 976.0 L 533.0 977.0 L 533.0 980.0 L 532.0 981.0 L 532.0 983.0 L 531.0 984.0 L 531.0 987.0 L 530.0 988.0 L 529.0 991.0 L 526.0 994.0 L 520.0 994.0 L 516.0 990.0 L 516.0 983.0 L 517.0 982.0 L 517.0 980.0 L 518.0 979.0 L 518.0 977.0 L 519.0 976.0 L 520.0 971.0 L 522.0 969.0 L 524.0 969.0 L 524.0 968.0 L 523.0 968.0 L 522.0 967.0 L 520.0 967.0 L 519.0 966.0 L 517.0 966.0 L 516.0 965.0 Z M 745.0 964.0 L 744.0 964.0 L 743.0 965.0 L 739.0 965.0 L 738.0 966.0 L 736.0 966.0 L 735.0 967.0 L 733.0 967.0 L 732.0 968.0 L 730.0 968.0 L 729.0 969.0 L 729.0 970.0 L 731.0 970.0 L 733.0 972.0 L 733.0 973.0 L 734.0 974.0 L 734.0 976.0 L 735.0 977.0 L 735.0 979.0 L 736.0 980.0 L 736.0 983.0 L 737.0 984.0 L 737.0 986.0 L 738.0 987.0 L 738.0 989.0 L 739.0 990.0 L 739.0 993.0 L 738.0 994.0 L 737.0 994.0 L 737.0 995.0 L 740.0 995.0 L 741.0 994.0 L 743.0 994.0 L 744.0 993.0 L 747.0 993.0 L 747.0 991.0 L 745.0 991.0 L 743.0 989.0 L 743.0 988.0 L 742.0 987.0 L 742.0 985.0 L 741.0 984.0 L 741.0 982.0 L 742.0 981.0 L 745.0 981.0 L 746.0 980.0 L 749.0 979.0 L 752.0 976.0 L 752.0 974.0 L 753.0 973.0 L 751.0 967.0 L 750.0 966.0 L 749.0 966.0 L 748.0 965.0 L 746.0 965.0 Z M 762.0 957.0 L 762.0 959.0 L 763.0 959.0 L 764.0 958.0 L 767.0 961.0 L 767.0 963.0 L 769.0 966.0 L 769.0 968.0 L 770.0 969.0 L 770.0 970.0 L 772.0 973.0 L 772.0 975.0 L 774.0 978.0 L 774.0 980.0 L 772.0 982.0 L 772.0 983.0 L 774.0 983.0 L 779.0 980.0 L 781.0 980.0 L 782.0 979.0 L 783.0 979.0 L 786.0 977.0 L 788.0 977.0 L 791.0 975.0 L 791.0 973.0 L 790.0 972.0 L 790.0 969.0 L 789.0 968.0 L 788.0 968.0 L 788.0 973.0 L 786.0 975.0 L 784.0 975.0 L 781.0 977.0 L 779.0 977.0 L 776.0 972.0 L 776.0 970.0 L 775.0 969.0 L 775.0 968.0 L 773.0 965.0 L 773.0 963.0 L 770.0 958.0 L 770.0 956.0 L 771.0 955.0 L 771.0 954.0 L 769.0 954.0 L 766.0 956.0 L 764.0 956.0 L 763.0 957.0 Z M 474.0 949.0 L 474.0 950.0 L 476.0 952.0 L 476.0 955.0 L 473.0 960.0 L 473.0 962.0 L 469.0 969.0 L 469.0 971.0 L 468.0 972.0 L 468.0 973.0 L 467.0 974.0 L 464.0 974.0 L 464.0 975.0 L 465.0 976.0 L 467.0 976.0 L 470.0 978.0 L 472.0 978.0 L 472.0 977.0 L 470.0 975.0 L 471.0 974.0 L 471.0 972.0 L 474.0 967.0 L 474.0 965.0 L 476.0 962.0 L 476.0 960.0 L 477.0 959.0 L 478.0 959.0 L 479.0 960.0 L 479.0 963.0 L 480.0 964.0 L 480.0 966.0 L 481.0 967.0 L 481.0 970.0 L 482.0 971.0 L 482.0 973.0 L 483.0 974.0 L 483.0 977.0 L 484.0 978.0 L 485.0 983.0 L 486.0 984.0 L 486.0 985.0 L 488.0 985.0 L 488.0 983.0 L 492.0 976.0 L 492.0 974.0 L 493.0 973.0 L 493.0 972.0 L 494.0 971.0 L 497.0 964.0 L 499.0 962.0 L 502.0 962.0 L 502.0 961.0 L 501.0 960.0 L 499.0 960.0 L 496.0 958.0 L 493.0 958.0 L 493.0 959.0 L 495.0 961.0 L 495.0 962.0 L 494.0 963.0 L 494.0 965.0 L 491.0 970.0 L 490.0 975.0 L 489.0 976.0 L 488.0 976.0 L 487.0 975.0 L 487.0 972.0 L 486.0 971.0 L 486.0 969.0 L 485.0 968.0 L 485.0 965.0 L 484.0 964.0 L 484.0 961.0 L 483.0 960.0 L 483.0 958.0 L 482.0 957.0 L 482.0 953.0 L 480.0 951.0 L 478.0 951.0 L 477.0 950.0 Z M 455.0 939.0 L 453.0 939.0 L 453.0 940.0 L 455.0 942.0 L 455.0 943.0 L 452.0 947.0 L 452.0 948.0 L 451.0 949.0 L 449.0 954.0 L 447.0 956.0 L 445.0 961.0 L 444.0 962.0 L 440.0 962.0 L 440.0 963.0 L 441.0 963.0 L 443.0 965.0 L 444.0 965.0 L 449.0 968.0 L 450.0 968.0 L 450.0 967.0 L 448.0 965.0 L 448.0 964.0 L 449.0 963.0 L 451.0 958.0 L 453.0 956.0 L 456.0 949.0 L 460.0 944.0 L 463.0 945.0 L 463.0 944.0 L 462.0 943.0 L 459.0 942.0 Z M 815.0 931.0 L 814.0 931.0 L 812.0 933.0 L 811.0 933.0 L 808.0 935.0 L 808.0 936.0 L 811.0 936.0 L 812.0 937.0 L 814.0 942.0 L 816.0 944.0 L 816.0 945.0 L 820.0 952.0 L 820.0 956.0 L 815.0 961.0 L 810.0 961.0 L 805.0 956.0 L 802.0 949.0 L 799.0 945.0 L 799.0 942.0 L 800.0 941.0 L 800.0 940.0 L 798.0 940.0 L 797.0 941.0 L 790.0 944.0 L 790.0 945.0 L 793.0 945.0 L 796.0 948.0 L 796.0 949.0 L 797.0 950.0 L 798.0 953.0 L 800.0 955.0 L 802.0 960.0 L 806.0 964.0 L 807.0 964.0 L 808.0 965.0 L 813.0 965.0 L 814.0 964.0 L 816.0 964.0 L 821.0 959.0 L 821.0 958.0 L 822.0 957.0 L 822.0 950.0 L 821.0 949.0 L 818.0 942.0 L 816.0 940.0 L 816.0 939.0 L 814.0 936.0 Z M 838.0 916.0 L 837.0 917.0 L 832.0 919.0 L 829.0 922.0 L 828.0 927.0 L 829.0 928.0 L 830.0 931.0 L 833.0 933.0 L 840.0 933.0 L 841.0 932.0 L 847.0 932.0 L 850.0 935.0 L 850.0 938.0 L 846.0 942.0 L 841.0 942.0 L 839.0 940.0 L 838.0 940.0 L 838.0 942.0 L 840.0 944.0 L 840.0 945.0 L 841.0 946.0 L 843.0 946.0 L 846.0 944.0 L 848.0 944.0 L 853.0 939.0 L 853.0 937.0 L 854.0 936.0 L 854.0 935.0 L 853.0 934.0 L 853.0 932.0 L 852.0 931.0 L 852.0 930.0 L 850.0 928.0 L 848.0 928.0 L 847.0 927.0 L 844.0 927.0 L 843.0 928.0 L 834.0 928.0 L 832.0 926.0 L 832.0 923.0 L 835.0 920.0 L 840.0 920.0 L 842.0 922.0 L 843.0 922.0 L 843.0 920.0 L 841.0 918.0 L 841.0 917.0 L 840.0 916.0 Z M 413.0 913.0 L 413.0 914.0 L 414.0 915.0 L 414.0 918.0 L 409.0 924.0 L 409.0 925.0 L 406.0 928.0 L 406.0 929.0 L 400.0 935.0 L 398.0 935.0 L 398.0 936.0 L 400.0 938.0 L 401.0 938.0 L 403.0 940.0 L 404.0 940.0 L 404.0 938.0 L 403.0 937.0 L 404.0 936.0 L 404.0 935.0 L 407.0 932.0 L 407.0 931.0 L 410.0 928.0 L 410.0 927.0 L 413.0 923.0 L 414.0 923.0 L 415.0 924.0 L 414.0 925.0 L 414.0 929.0 L 413.0 930.0 L 413.0 933.0 L 412.0 934.0 L 412.0 939.0 L 411.0 940.0 L 411.0 945.0 L 412.0 945.0 L 414.0 943.0 L 417.0 942.0 L 419.0 940.0 L 422.0 939.0 L 424.0 937.0 L 427.0 936.0 L 430.0 933.0 L 431.0 934.0 L 431.0 935.0 L 428.0 938.0 L 427.0 941.0 L 425.0 943.0 L 425.0 944.0 L 423.0 946.0 L 423.0 947.0 L 421.0 949.0 L 418.0 949.0 L 418.0 950.0 L 419.0 951.0 L 420.0 951.0 L 422.0 953.0 L 423.0 953.0 L 425.0 955.0 L 426.0 955.0 L 426.0 953.0 L 425.0 952.0 L 426.0 951.0 L 427.0 948.0 L 429.0 946.0 L 429.0 945.0 L 431.0 943.0 L 431.0 942.0 L 437.0 934.0 L 437.0 933.0 L 438.0 932.0 L 439.0 932.0 L 440.0 933.0 L 442.0 933.0 L 442.0 932.0 L 438.0 929.0 L 437.0 929.0 L 436.0 928.0 L 434.0 928.0 L 430.0 931.0 L 429.0 931.0 L 427.0 933.0 L 426.0 933.0 L 424.0 935.0 L 421.0 936.0 L 417.0 939.0 L 416.0 938.0 L 416.0 937.0 L 417.0 936.0 L 417.0 931.0 L 418.0 930.0 L 418.0 925.0 L 419.0 924.0 L 419.0 921.0 L 420.0 920.0 L 420.0 917.0 L 419.0 917.0 L 416.0 914.0 Z M 357.0 924.0 L 401.0 880.0 L 434.0 907.0 L 461.0 924.0 L 517.0 949.0 L 577.0 964.0 L 605.0 967.0 L 649.0 967.0 L 703.0 959.0 L 759.0 941.0 L 804.0 918.0 L 854.0 880.0 L 897.0 925.0 L 874.0 945.0 L 833.0 972.0 L 796.0 991.0 L 759.0 1006.0 L 721.0 1017.0 L 684.0 1024.0 L 655.0 1027.0 L 604.0 1027.0 L 560.0 1022.0 L 530.0 1016.0 L 475.0 998.0 L 442.0 983.0 L 412.0 966.0 L 380.0 944.0 Z M 587.0 857.0 L 588.0 856.0 L 589.0 857.0 L 589.0 858.0 L 588.0 859.0 L 587.0 858.0 Z M 664.0 855.0 L 665.0 854.0 L 666.0 855.0 L 666.0 856.0 L 665.0 857.0 L 664.0 856.0 Z M 667.0 842.0 L 668.0 841.0 L 669.0 842.0 L 669.0 843.0 L 668.0 844.0 L 667.0 843.0 Z M 581.0 837.0 L 582.0 836.0 L 586.0 840.0 L 586.0 841.0 L 585.0 842.0 L 581.0 838.0 Z M 610.0 829.0 L 611.0 830.0 L 611.0 832.0 L 610.0 833.0 L 609.0 832.0 L 609.0 830.0 Z M 608.0 828.0 L 609.0 827.0 L 610.0 828.0 L 610.0 829.0 L 609.0 830.0 L 608.0 829.0 Z M 310.0 824.0 L 407.0 823.0 L 487.0 829.0 L 521.0 836.0 L 557.0 848.0 L 578.0 860.0 L 583.0 869.0 L 595.0 875.0 L 628.0 880.0 L 648.0 878.0 L 670.0 870.0 L 676.0 860.0 L 695.0 849.0 L 722.0 839.0 L 756.0 831.0 L 802.0 825.0 L 841.0 823.0 L 943.0 823.0 L 944.0 825.0 L 941.0 829.0 L 827.0 830.0 L 756.0 838.0 L 723.0 846.0 L 694.0 857.0 L 680.0 865.0 L 678.0 871.0 L 673.0 876.0 L 660.0 882.0 L 641.0 886.0 L 615.0 886.0 L 589.0 880.0 L 579.0 874.0 L 574.0 865.0 L 549.0 852.0 L 513.0 841.0 L 473.0 834.0 L 426.0 830.0 L 314.0 829.0 Z M 631.0 820.0 L 632.0 819.0 L 633.0 820.0 L 633.0 821.0 L 632.0 822.0 L 631.0 821.0 Z M 623.0 818.0 L 624.0 819.0 L 624.0 821.0 L 623.0 822.0 L 622.0 821.0 L 622.0 819.0 Z M 623.0 812.0 L 624.0 813.0 L 624.0 815.0 L 623.0 816.0 L 623.0 818.0 L 622.0 819.0 L 621.0 818.0 L 620.0 815.0 L 621.0 814.0 L 622.0 814.0 L 622.0 813.0 Z M 619.0 813.0 L 620.0 812.0 L 621.0 813.0 L 621.0 814.0 L 620.0 815.0 L 619.0 814.0 Z M 618.0 811.0 L 619.0 810.0 L 620.0 811.0 L 620.0 812.0 L 619.0 813.0 L 618.0 812.0 Z M 620.0 809.0 L 621.0 808.0 L 622.0 809.0 L 622.0 810.0 L 621.0 811.0 L 620.0 810.0 Z M 617.0 809.0 L 618.0 808.0 L 619.0 809.0 L 619.0 810.0 L 618.0 811.0 L 617.0 810.0 Z M 637.0 806.0 L 638.0 805.0 L 639.0 806.0 L 639.0 807.0 L 638.0 808.0 L 637.0 807.0 Z M 619.0 806.0 L 620.0 805.0 L 621.0 806.0 L 621.0 807.0 L 620.0 808.0 L 619.0 807.0 Z M 617.0 805.0 L 618.0 806.0 L 618.0 808.0 L 617.0 809.0 L 616.0 808.0 L 616.0 806.0 Z M 623.0 804.0 L 624.0 805.0 L 624.0 808.0 L 623.0 809.0 L 622.0 808.0 L 622.0 805.0 Z M 638.0 804.0 L 639.0 803.0 L 640.0 804.0 L 640.0 805.0 L 639.0 806.0 L 638.0 805.0 Z M 615.0 804.0 L 616.0 803.0 L 617.0 804.0 L 617.0 805.0 L 616.0 806.0 L 615.0 805.0 Z M 636.0 802.0 L 637.0 803.0 L 637.0 805.0 L 636.0 806.0 L 635.0 805.0 L 635.0 803.0 Z M 633.0 802.0 L 634.0 803.0 L 634.0 805.0 L 633.0 806.0 L 633.0 810.0 L 632.0 811.0 L 631.0 810.0 L 631.0 805.0 Z M 621.0 803.0 L 622.0 802.0 L 623.0 803.0 L 623.0 804.0 L 622.0 805.0 L 621.0 804.0 Z M 619.0 802.0 L 620.0 803.0 L 620.0 805.0 L 619.0 806.0 L 618.0 805.0 L 618.0 803.0 Z M 636.0 801.0 L 637.0 800.0 L 638.0 801.0 L 638.0 802.0 L 637.0 803.0 L 636.0 802.0 Z M 633.0 801.0 L 634.0 800.0 L 635.0 801.0 L 635.0 802.0 L 634.0 803.0 L 633.0 802.0 Z M 617.0 801.0 L 618.0 800.0 L 619.0 801.0 L 619.0 802.0 L 618.0 803.0 L 617.0 802.0 Z M 705.0 798.0 L 706.0 797.0 L 707.0 797.0 L 708.0 798.0 L 707.0 799.0 L 706.0 799.0 Z M 632.0 797.0 L 633.0 798.0 L 633.0 800.0 L 632.0 801.0 L 631.0 800.0 L 631.0 798.0 Z M 623.0 797.0 L 624.0 798.0 L 624.0 800.0 L 623.0 801.0 L 622.0 801.0 L 622.0 802.0 L 621.0 803.0 L 620.0 802.0 L 620.0 800.0 L 621.0 799.0 L 622.0 799.0 L 622.0 798.0 Z M 636.0 794.0 L 637.0 795.0 L 637.0 797.0 L 635.0 800.0 L 634.0 799.0 L 634.0 798.0 L 633.0 798.0 L 632.0 797.0 L 633.0 796.0 L 635.0 796.0 L 635.0 795.0 Z M 619.0 794.0 L 621.0 797.0 L 621.0 799.0 L 620.0 800.0 L 618.0 797.0 L 618.0 795.0 Z M 636.0 793.0 L 637.0 792.0 L 638.0 793.0 L 638.0 794.0 L 637.0 795.0 L 636.0 794.0 Z M 617.0 793.0 L 618.0 792.0 L 619.0 793.0 L 619.0 794.0 L 618.0 795.0 L 617.0 794.0 Z M 610.0 792.0 L 612.0 794.0 L 612.0 795.0 L 616.0 802.0 L 616.0 803.0 L 615.0 804.0 L 613.0 802.0 L 611.0 797.0 L 609.0 795.0 L 609.0 793.0 Z M 717.0 792.0 L 718.0 791.0 L 719.0 791.0 L 720.0 792.0 L 719.0 793.0 L 718.0 793.0 Z M 534.0 792.0 L 535.0 791.0 L 536.0 791.0 L 537.0 792.0 L 536.0 793.0 L 535.0 793.0 Z M 719.0 791.0 L 720.0 790.0 L 721.0 790.0 L 722.0 791.0 L 721.0 792.0 L 720.0 792.0 Z M 637.0 791.0 L 638.0 790.0 L 639.0 791.0 L 639.0 792.0 L 638.0 793.0 L 637.0 792.0 Z M 631.0 791.0 L 632.0 790.0 L 633.0 791.0 L 633.0 792.0 L 632.0 793.0 L 631.0 792.0 Z M 616.0 791.0 L 617.0 790.0 L 618.0 791.0 L 618.0 792.0 L 617.0 793.0 L 616.0 792.0 Z M 532.0 791.0 L 533.0 790.0 L 534.0 790.0 L 535.0 791.0 L 534.0 792.0 L 533.0 792.0 Z M 721.0 790.0 L 722.0 789.0 L 723.0 789.0 L 724.0 790.0 L 723.0 791.0 L 722.0 791.0 Z M 634.0 790.0 L 635.0 789.0 L 636.0 790.0 L 636.0 791.0 L 635.0 792.0 L 634.0 791.0 Z M 619.0 790.0 L 620.0 789.0 L 621.0 790.0 L 621.0 791.0 L 620.0 792.0 L 619.0 791.0 Z M 530.0 790.0 L 531.0 789.0 L 532.0 789.0 L 533.0 790.0 L 532.0 791.0 L 531.0 791.0 Z M 723.0 789.0 L 724.0 788.0 L 725.0 788.0 L 726.0 789.0 L 725.0 790.0 L 724.0 790.0 Z M 638.0 789.0 L 639.0 788.0 L 640.0 789.0 L 640.0 790.0 L 639.0 791.0 L 638.0 790.0 Z M 527.0 789.0 L 528.0 788.0 L 529.0 788.0 L 530.0 789.0 L 529.0 790.0 L 528.0 790.0 Z M 726.0 788.0 L 727.0 787.0 L 728.0 787.0 L 729.0 788.0 L 728.0 789.0 L 727.0 789.0 Z M 606.0 788.0 L 607.0 787.0 L 608.0 788.0 L 608.0 789.0 L 607.0 790.0 L 606.0 789.0 Z M 551.0 788.0 L 552.0 787.0 L 553.0 787.0 L 554.0 788.0 L 553.0 789.0 L 552.0 789.0 Z M 729.0 787.0 L 730.0 786.0 L 731.0 786.0 L 732.0 787.0 L 731.0 788.0 L 730.0 788.0 Z M 639.0 787.0 L 640.0 786.0 L 641.0 787.0 L 641.0 788.0 L 640.0 789.0 L 639.0 788.0 Z M 619.0 786.0 L 620.0 787.0 L 620.0 789.0 L 619.0 790.0 L 618.0 789.0 L 618.0 787.0 Z M 615.0 786.0 L 617.0 788.0 L 617.0 790.0 L 616.0 791.0 L 614.0 788.0 L 614.0 787.0 Z M 611.0 786.0 L 613.0 788.0 L 613.0 789.0 L 618.0 798.0 L 618.0 800.0 L 617.0 801.0 L 616.0 800.0 L 616.0 799.0 L 610.0 788.0 L 610.0 787.0 Z M 549.0 787.0 L 550.0 786.0 L 551.0 786.0 L 552.0 787.0 L 551.0 788.0 L 550.0 788.0 Z M 527.0 785.0 L 528.0 786.0 L 528.0 788.0 L 527.0 789.0 L 526.0 789.0 L 525.0 788.0 Z M 640.0 785.0 L 641.0 784.0 L 642.0 785.0 L 642.0 786.0 L 641.0 787.0 L 640.0 786.0 Z M 637.0 784.0 L 638.0 785.0 L 638.0 787.0 L 636.0 790.0 L 635.0 789.0 L 635.0 787.0 Z M 617.0 785.0 L 618.0 784.0 L 619.0 785.0 L 619.0 786.0 L 618.0 787.0 L 617.0 786.0 Z M 613.0 785.0 L 614.0 784.0 L 615.0 785.0 L 615.0 786.0 L 614.0 787.0 L 613.0 786.0 Z M 546.0 785.0 L 547.0 784.0 L 548.0 784.0 L 550.0 786.0 L 549.0 787.0 L 548.0 787.0 Z M 525.0 784.0 L 526.0 785.0 L 525.0 786.0 L 525.0 787.0 L 524.0 788.0 L 523.0 788.0 L 522.0 787.0 L 523.0 786.0 L 523.0 785.0 L 524.0 784.0 Z M 731.0 784.0 L 732.0 783.0 L 734.0 786.0 L 733.0 787.0 L 732.0 787.0 L 731.0 786.0 Z M 707.0 784.0 L 708.0 783.0 L 709.0 783.0 L 710.0 784.0 L 709.0 785.0 L 708.0 785.0 Z M 544.0 784.0 L 545.0 783.0 L 546.0 783.0 L 547.0 784.0 L 546.0 785.0 L 545.0 785.0 Z M 522.0 783.0 L 523.0 784.0 L 522.0 785.0 L 522.0 786.0 L 521.0 787.0 L 520.0 787.0 L 519.0 786.0 L 520.0 785.0 L 520.0 784.0 L 521.0 783.0 Z M 734.0 783.0 L 735.0 782.0 L 737.0 785.0 L 736.0 786.0 L 735.0 786.0 L 734.0 785.0 Z M 709.0 783.0 L 710.0 782.0 L 711.0 782.0 L 712.0 783.0 L 711.0 784.0 L 710.0 784.0 Z M 641.0 783.0 L 642.0 782.0 L 643.0 783.0 L 643.0 784.0 L 642.0 785.0 L 641.0 784.0 Z M 637.0 783.0 L 638.0 782.0 L 639.0 783.0 L 639.0 784.0 L 638.0 785.0 L 637.0 784.0 Z M 616.0 783.0 L 617.0 782.0 L 618.0 783.0 L 618.0 784.0 L 617.0 785.0 L 616.0 784.0 Z M 612.0 783.0 L 613.0 782.0 L 614.0 783.0 L 614.0 784.0 L 613.0 785.0 L 612.0 784.0 Z M 542.0 783.0 L 543.0 782.0 L 544.0 782.0 L 545.0 783.0 L 544.0 784.0 L 543.0 784.0 Z M 711.0 782.0 L 712.0 781.0 L 713.0 781.0 L 714.0 782.0 L 713.0 783.0 L 712.0 783.0 Z M 540.0 782.0 L 541.0 781.0 L 542.0 781.0 L 543.0 782.0 L 542.0 783.0 L 541.0 783.0 Z M 513.0 784.0 L 514.0 783.0 L 515.0 783.0 L 515.0 782.0 L 516.0 781.0 L 518.0 781.0 L 521.0 783.0 L 520.0 784.0 L 519.0 784.0 L 519.0 785.0 L 518.0 786.0 L 517.0 786.0 L 516.0 785.0 L 514.0 785.0 Z M 713.0 781.0 L 714.0 780.0 L 715.0 780.0 L 716.0 781.0 L 715.0 782.0 L 714.0 782.0 Z M 642.0 781.0 L 643.0 780.0 L 644.0 781.0 L 644.0 782.0 L 643.0 783.0 L 642.0 782.0 Z M 619.0 781.0 L 620.0 780.0 L 621.0 781.0 L 621.0 782.0 L 620.0 783.0 L 619.0 782.0 Z M 611.0 781.0 L 612.0 780.0 L 613.0 781.0 L 613.0 782.0 L 612.0 783.0 L 611.0 782.0 Z M 538.0 781.0 L 539.0 780.0 L 540.0 780.0 L 541.0 781.0 L 540.0 782.0 L 539.0 782.0 Z M 510.0 783.0 L 512.0 780.0 L 514.0 780.0 L 515.0 781.0 L 513.0 784.0 L 511.0 784.0 Z M 715.0 780.0 L 716.0 779.0 L 717.0 779.0 L 718.0 780.0 L 717.0 781.0 L 716.0 781.0 Z M 635.0 780.0 L 636.0 779.0 L 637.0 780.0 L 637.0 781.0 L 636.0 782.0 L 635.0 781.0 Z M 536.0 780.0 L 537.0 779.0 L 538.0 779.0 L 539.0 780.0 L 538.0 781.0 L 537.0 781.0 Z M 507.0 782.0 L 509.0 779.0 L 511.0 779.0 L 512.0 780.0 L 511.0 781.0 L 510.0 781.0 L 510.0 782.0 L 509.0 783.0 L 508.0 783.0 Z M 717.0 779.0 L 718.0 778.0 L 719.0 778.0 L 720.0 779.0 L 719.0 780.0 L 718.0 780.0 Z M 618.0 779.0 L 619.0 778.0 L 620.0 779.0 L 620.0 780.0 L 619.0 781.0 L 618.0 780.0 Z M 533.0 779.0 L 534.0 778.0 L 535.0 778.0 L 536.0 779.0 L 535.0 780.0 L 534.0 780.0 Z M 740.0 778.0 L 741.0 777.0 L 742.0 777.0 L 743.0 778.0 L 742.0 779.0 L 741.0 779.0 Z M 615.0 777.0 L 617.0 780.0 L 617.0 782.0 L 616.0 783.0 L 614.0 780.0 L 614.0 778.0 Z M 600.0 777.0 L 603.0 780.0 L 603.0 781.0 L 607.0 786.0 L 607.0 787.0 L 606.0 788.0 L 605.0 788.0 L 603.0 786.0 L 603.0 784.0 L 602.0 784.0 L 598.0 780.0 L 598.0 779.0 Z M 531.0 778.0 L 532.0 777.0 L 533.0 777.0 L 534.0 778.0 L 533.0 779.0 L 532.0 779.0 Z M 743.0 777.0 L 744.0 776.0 L 745.0 776.0 L 746.0 777.0 L 745.0 778.0 L 744.0 778.0 Z M 719.0 778.0 L 722.0 776.0 L 724.0 776.0 L 726.0 779.0 L 725.0 780.0 L 723.0 780.0 L 722.0 781.0 L 721.0 780.0 L 721.0 779.0 L 720.0 779.0 Z M 636.0 777.0 L 637.0 776.0 L 638.0 777.0 L 638.0 778.0 L 637.0 779.0 L 636.0 778.0 Z M 613.0 776.0 L 614.0 775.0 L 615.0 776.0 L 615.0 777.0 L 614.0 778.0 L 613.0 777.0 Z M 525.0 778.0 L 527.0 775.0 L 529.0 775.0 L 532.0 777.0 L 531.0 778.0 L 530.0 778.0 L 530.0 779.0 L 529.0 780.0 L 528.0 779.0 L 526.0 779.0 Z M 608.0 774.0 L 609.0 774.0 L 610.0 775.0 L 610.0 776.0 L 612.0 779.0 L 612.0 780.0 L 611.0 781.0 L 609.0 779.0 L 609.0 778.0 L 607.0 775.0 Z M 522.0 777.0 L 524.0 774.0 L 526.0 774.0 L 527.0 775.0 L 526.0 776.0 L 525.0 776.0 L 525.0 777.0 L 524.0 778.0 L 523.0 778.0 Z M 519.0 776.0 L 521.0 773.0 L 523.0 773.0 L 524.0 774.0 L 523.0 775.0 L 522.0 775.0 L 522.0 776.0 L 521.0 777.0 L 520.0 777.0 Z M 638.0 772.0 L 639.0 773.0 L 639.0 775.0 L 638.0 776.0 L 637.0 775.0 L 637.0 773.0 Z M 516.0 775.0 L 518.0 772.0 L 520.0 772.0 L 521.0 773.0 L 520.0 774.0 L 519.0 774.0 L 519.0 775.0 L 518.0 776.0 L 517.0 776.0 Z M 762.0 772.0 L 763.0 771.0 L 768.0 771.0 L 769.0 772.0 L 768.0 773.0 L 763.0 773.0 Z M 592.0 773.0 L 595.0 771.0 L 600.0 776.0 L 597.0 778.0 Z M 638.0 771.0 L 639.0 770.0 L 640.0 771.0 L 640.0 772.0 L 639.0 773.0 L 638.0 772.0 Z M 485.0 771.0 L 486.0 770.0 L 488.0 770.0 L 489.0 771.0 L 488.0 772.0 L 486.0 772.0 Z M 480.0 770.0 L 481.0 769.0 L 483.0 769.0 L 484.0 770.0 L 483.0 771.0 L 481.0 771.0 Z M 597.0 768.0 L 599.0 768.0 L 605.0 775.0 L 606.0 778.0 L 609.0 781.0 L 609.0 782.0 L 611.0 785.0 L 611.0 786.0 L 610.0 787.0 L 608.0 785.0 L 608.0 784.0 L 606.0 782.0 L 606.0 781.0 L 603.0 778.0 L 603.0 777.0 L 596.0 769.0 Z M 473.0 769.0 L 474.0 768.0 L 479.0 768.0 L 480.0 769.0 L 479.0 770.0 L 474.0 770.0 Z M 641.0 765.0 L 642.0 766.0 L 642.0 768.0 L 640.0 771.0 L 639.0 770.0 L 639.0 768.0 Z M 795.0 764.0 L 795.0 765.0 L 819.0 765.0 L 819.0 764.0 Z M 641.0 764.0 L 642.0 763.0 L 643.0 764.0 L 643.0 765.0 L 642.0 766.0 L 641.0 765.0 Z M 440.0 764.0 L 440.0 765.0 L 455.0 765.0 L 455.0 764.0 Z M 724.0 776.0 L 748.0 767.0 L 771.0 762.0 L 786.0 761.0 L 787.0 760.0 L 821.0 760.0 L 822.0 761.0 L 831.0 761.0 L 839.0 763.0 L 835.0 764.0 L 835.0 765.0 L 857.0 767.0 L 863.0 769.0 L 896.0 773.0 L 897.0 774.0 L 915.0 775.0 L 916.0 777.0 L 919.0 778.0 L 927.0 778.0 L 928.0 779.0 L 927.0 780.0 L 918.0 780.0 L 917.0 779.0 L 908.0 779.0 L 907.0 778.0 L 858.0 775.0 L 857.0 774.0 L 842.0 774.0 L 841.0 773.0 L 799.0 773.0 L 798.0 774.0 L 788.0 774.0 L 787.0 775.0 L 768.0 777.0 L 754.0 780.0 L 739.0 785.0 L 736.0 782.0 L 748.0 778.0 L 746.0 776.0 L 747.0 775.0 L 752.0 777.0 L 752.0 776.0 L 749.0 775.0 L 750.0 774.0 L 753.0 774.0 L 754.0 776.0 L 757.0 776.0 L 757.0 775.0 L 753.0 774.0 L 758.0 772.0 L 762.0 772.0 L 763.0 774.0 L 766.0 775.0 L 769.0 773.0 L 776.0 773.0 L 776.0 772.0 L 769.0 772.0 L 768.0 771.0 L 769.0 770.0 L 778.0 770.0 L 780.0 772.0 L 779.0 770.0 L 780.0 769.0 L 796.0 769.0 L 796.0 768.0 L 784.0 768.0 L 783.0 767.0 L 784.0 766.0 L 792.0 766.0 L 792.0 765.0 L 776.0 766.0 L 771.0 768.0 L 766.0 768.0 L 761.0 770.0 L 752.0 771.0 L 728.0 779.0 Z M 518.0 772.0 L 514.0 775.0 L 513.0 774.0 L 514.0 772.0 L 511.0 774.0 L 502.0 771.0 L 487.0 769.0 L 482.0 767.0 L 469.0 766.0 L 468.0 765.0 L 458.0 765.0 L 458.0 766.0 L 467.0 766.0 L 474.0 768.0 L 473.0 769.0 L 467.0 769.0 L 466.0 768.0 L 447.0 768.0 L 447.0 769.0 L 464.0 769.0 L 465.0 770.0 L 490.0 773.0 L 508.0 778.0 L 509.0 779.0 L 506.0 782.0 L 503.0 781.0 L 504.0 779.0 L 502.0 781.0 L 500.0 781.0 L 499.0 780.0 L 500.0 778.0 L 498.0 780.0 L 496.0 780.0 L 495.0 779.0 L 480.0 777.0 L 474.0 775.0 L 455.0 774.0 L 454.0 773.0 L 416.0 773.0 L 415.0 774.0 L 385.0 775.0 L 384.0 776.0 L 372.0 776.0 L 371.0 777.0 L 360.0 777.0 L 359.0 778.0 L 337.0 779.0 L 336.0 780.0 L 326.0 780.0 L 325.0 779.0 L 326.0 778.0 L 339.0 777.0 L 343.0 775.0 L 374.0 772.0 L 375.0 771.0 L 386.0 770.0 L 387.0 769.0 L 403.0 767.0 L 404.0 766.0 L 422.0 765.0 L 422.0 764.0 L 419.0 764.0 L 418.0 763.0 L 419.0 762.0 L 434.0 761.0 L 435.0 760.0 L 467.0 760.0 L 468.0 761.0 L 482.0 762.0 L 483.0 763.0 L 488.0 763.0 L 489.0 764.0 L 493.0 764.0 L 494.0 765.0 L 505.0 767.0 L 509.0 769.0 L 515.0 770.0 Z M 591.0 758.0 L 598.0 766.0 L 596.0 769.0 L 588.0 761.0 L 589.0 760.0 L 590.0 760.0 L 590.0 759.0 Z M 646.0 755.0 L 647.0 756.0 L 647.0 757.0 L 648.0 757.0 L 649.0 758.0 L 648.0 759.0 L 647.0 762.0 L 646.0 763.0 L 645.0 762.0 L 644.0 762.0 L 644.0 763.0 L 643.0 764.0 L 642.0 763.0 L 642.0 761.0 L 643.0 760.0 L 644.0 757.0 Z M 646.0 754.0 L 647.0 753.0 L 648.0 754.0 L 648.0 755.0 L 647.0 756.0 L 646.0 755.0 Z M 594.0 752.0 L 597.0 755.0 L 597.0 756.0 L 599.0 758.0 L 599.0 759.0 L 602.0 762.0 L 602.0 763.0 L 606.0 768.0 L 606.0 769.0 L 608.0 772.0 L 608.0 774.0 L 607.0 775.0 L 605.0 773.0 L 605.0 772.0 L 603.0 770.0 L 603.0 769.0 L 601.0 767.0 L 601.0 766.0 L 591.0 755.0 L 592.0 754.0 L 593.0 754.0 L 593.0 753.0 Z M 580.0 754.0 L 581.0 753.0 L 582.0 753.0 L 582.0 752.0 L 583.0 751.0 L 584.0 751.0 L 591.0 758.0 L 590.0 759.0 L 589.0 759.0 L 589.0 760.0 L 588.0 761.0 Z M 650.0 748.0 L 651.0 749.0 L 651.0 750.0 L 652.0 750.0 L 653.0 751.0 L 650.0 755.0 L 647.0 753.0 L 648.0 750.0 Z M 595.0 748.0 L 596.0 748.0 L 597.0 747.0 L 600.0 750.0 L 600.0 751.0 L 606.0 759.0 L 607.0 762.0 L 609.0 764.0 L 609.0 765.0 L 614.0 774.0 L 614.0 775.0 L 613.0 776.0 L 611.0 774.0 L 609.0 769.0 L 607.0 767.0 L 607.0 766.0 L 606.0 765.0 L 605.0 762.0 L 603.0 760.0 L 603.0 759.0 L 594.0 749.0 Z M 650.0 747.0 L 652.0 745.0 L 653.0 746.0 L 653.0 747.0 L 654.0 747.0 L 655.0 748.0 L 653.0 750.0 L 652.0 749.0 L 651.0 749.0 L 650.0 748.0 Z M 579.0 744.0 L 580.0 743.0 L 581.0 743.0 L 585.0 747.0 L 584.0 748.0 L 583.0 748.0 Z M 596.0 736.0 L 599.0 739.0 L 599.0 740.0 L 602.0 743.0 L 602.0 744.0 L 604.0 746.0 L 604.0 747.0 L 607.0 750.0 L 607.0 751.0 L 609.0 754.0 L 608.0 755.0 L 607.0 755.0 L 606.0 756.0 L 605.0 755.0 L 605.0 754.0 L 602.0 751.0 L 602.0 750.0 L 600.0 748.0 L 600.0 747.0 L 593.0 739.0 L 594.0 738.0 L 595.0 738.0 L 595.0 737.0 Z M 724.0 736.0 L 722.0 736.0 L 721.0 737.0 L 719.0 737.0 L 716.0 739.0 L 711.0 740.0 L 710.0 741.0 L 709.0 741.0 L 708.0 742.0 L 707.0 742.0 L 706.0 743.0 L 705.0 743.0 L 704.0 744.0 L 703.0 744.0 L 702.0 745.0 L 701.0 745.0 L 700.0 746.0 L 693.0 749.0 L 691.0 751.0 L 688.0 752.0 L 686.0 754.0 L 685.0 754.0 L 683.0 756.0 L 682.0 756.0 L 675.0 762.0 L 674.0 762.0 L 655.0 781.0 L 655.0 782.0 L 652.0 785.0 L 652.0 786.0 L 649.0 789.0 L 649.0 790.0 L 645.0 795.0 L 642.0 802.0 L 643.0 802.0 L 644.0 799.0 L 649.0 793.0 L 650.0 790.0 L 654.0 786.0 L 654.0 785.0 L 658.0 781.0 L 658.0 780.0 L 669.0 769.0 L 670.0 769.0 L 677.0 762.0 L 678.0 762.0 L 685.0 756.0 L 686.0 756.0 L 691.0 752.0 L 694.0 751.0 L 696.0 749.0 L 697.0 749.0 L 698.0 748.0 L 699.0 748.0 L 700.0 747.0 L 701.0 747.0 L 702.0 746.0 L 703.0 746.0 L 714.0 740.0 L 716.0 740.0 L 719.0 738.0 L 724.0 737.0 Z M 362.0 745.0 L 368.0 737.0 L 369.0 734.0 L 371.0 733.0 L 374.0 735.0 L 372.0 736.0 L 372.0 738.0 L 369.0 743.0 L 372.0 743.0 L 373.0 744.0 L 441.0 744.0 L 442.0 745.0 L 458.0 745.0 L 459.0 746.0 L 468.0 746.0 L 469.0 747.0 L 476.0 747.0 L 477.0 748.0 L 488.0 749.0 L 489.0 750.0 L 493.0 750.0 L 494.0 751.0 L 498.0 751.0 L 499.0 752.0 L 510.0 754.0 L 538.0 764.0 L 554.0 772.0 L 567.0 780.0 L 579.0 789.0 L 596.0 806.0 L 606.0 820.0 L 609.0 827.0 L 608.0 828.0 L 606.0 826.0 L 602.0 819.0 L 594.0 809.0 L 582.0 797.0 L 571.0 788.0 L 555.0 778.0 L 537.0 769.0 L 515.0 761.0 L 512.0 761.0 L 508.0 759.0 L 505.0 759.0 L 496.0 756.0 L 491.0 756.0 L 490.0 755.0 L 480.0 754.0 L 479.0 753.0 L 472.0 753.0 L 471.0 752.0 L 447.0 751.0 L 446.0 750.0 L 383.0 749.0 L 382.0 748.0 L 363.0 747.0 Z M 712.0 732.0 L 709.0 733.0 L 709.0 734.0 L 712.0 733.0 Z M 580.0 727.0 L 581.0 726.0 L 582.0 726.0 L 586.0 730.0 L 585.0 731.0 L 584.0 731.0 Z M 711.0 717.0 L 706.0 719.0 L 706.0 720.0 L 711.0 718.0 Z M 620.0 716.0 L 621.0 715.0 L 622.0 716.0 L 622.0 717.0 L 621.0 718.0 L 620.0 717.0 Z M 847.0 714.0 L 844.0 714.0 L 843.0 715.0 L 841.0 715.0 L 840.0 716.0 L 836.0 716.0 L 835.0 717.0 L 830.0 717.0 L 829.0 718.0 L 819.0 718.0 L 818.0 719.0 L 796.0 719.0 L 795.0 720.0 L 774.0 720.0 L 774.0 721.0 L 803.0 721.0 L 804.0 720.0 L 825.0 720.0 L 826.0 719.0 L 833.0 719.0 L 834.0 718.0 L 838.0 718.0 L 839.0 717.0 L 842.0 717.0 L 843.0 716.0 L 845.0 716.0 L 846.0 715.0 L 847.0 715.0 Z M 407.0 714.0 L 407.0 715.0 L 409.0 715.0 L 410.0 716.0 L 412.0 716.0 L 413.0 717.0 L 416.0 717.0 L 417.0 718.0 L 421.0 718.0 L 422.0 719.0 L 428.0 719.0 L 429.0 720.0 L 445.0 720.0 L 446.0 721.0 L 472.0 721.0 L 472.0 720.0 L 451.0 720.0 L 450.0 719.0 L 434.0 719.0 L 433.0 718.0 L 425.0 718.0 L 424.0 717.0 L 420.0 717.0 L 419.0 716.0 L 415.0 716.0 L 414.0 715.0 L 411.0 715.0 L 410.0 714.0 Z M 761.0 712.0 L 761.0 713.0 L 767.0 713.0 L 767.0 712.0 Z M 562.0 712.0 L 562.0 713.0 L 565.0 714.0 L 567.0 716.0 L 570.0 717.0 L 572.0 719.0 L 573.0 719.0 L 575.0 721.0 L 576.0 721.0 L 576.0 720.0 L 572.0 717.0 L 571.0 717.0 L 567.0 714.0 Z M 465.0 711.0 L 465.0 712.0 L 476.0 712.0 L 476.0 711.0 Z M 535.0 708.0 L 535.0 709.0 L 536.0 709.0 L 537.0 710.0 L 539.0 710.0 L 540.0 711.0 L 542.0 711.0 L 543.0 712.0 L 544.0 712.0 L 544.0 711.0 L 543.0 711.0 L 542.0 710.0 L 540.0 710.0 L 539.0 709.0 L 537.0 709.0 L 536.0 708.0 Z M 751.0 706.0 L 751.0 707.0 L 754.0 707.0 L 754.0 706.0 Z M 549.0 706.0 L 549.0 707.0 L 552.0 708.0 L 552.0 707.0 Z M 759.0 705.0 L 759.0 706.0 L 768.0 706.0 L 768.0 705.0 Z M 623.0 705.0 L 622.0 708.0 L 623.0 708.0 L 624.0 709.0 L 624.0 710.0 L 625.0 710.0 L 625.0 709.0 L 624.0 709.0 L 623.0 708.0 L 623.0 707.0 L 624.0 706.0 L 624.0 705.0 Z M 772.0 704.0 L 772.0 705.0 L 789.0 705.0 L 789.0 704.0 Z M 611.0 703.0 L 612.0 704.0 L 612.0 705.0 L 610.0 707.0 L 609.0 706.0 L 609.0 705.0 Z M 840.0 703.0 L 839.0 703.0 L 836.0 705.0 L 834.0 705.0 L 833.0 706.0 L 830.0 706.0 L 829.0 707.0 L 826.0 707.0 L 825.0 708.0 L 818.0 708.0 L 817.0 709.0 L 803.0 709.0 L 802.0 710.0 L 784.0 710.0 L 783.0 711.0 L 770.0 711.0 L 770.0 712.0 L 785.0 712.0 L 786.0 711.0 L 811.0 711.0 L 812.0 710.0 L 822.0 710.0 L 823.0 709.0 L 827.0 709.0 L 828.0 708.0 L 831.0 708.0 L 832.0 707.0 L 834.0 707.0 L 835.0 706.0 L 840.0 705.0 Z M 413.0 703.0 L 413.0 704.0 L 414.0 704.0 L 417.0 706.0 L 419.0 706.0 L 420.0 707.0 L 422.0 707.0 L 423.0 708.0 L 427.0 708.0 L 428.0 709.0 L 433.0 709.0 L 434.0 710.0 L 442.0 710.0 L 443.0 711.0 L 461.0 711.0 L 461.0 710.0 L 446.0 710.0 L 445.0 709.0 L 436.0 709.0 L 435.0 708.0 L 429.0 708.0 L 428.0 707.0 L 425.0 707.0 L 424.0 706.0 L 421.0 706.0 L 420.0 705.0 L 418.0 705.0 L 415.0 703.0 Z M 735.0 702.0 L 732.0 702.0 L 731.0 703.0 L 728.0 703.0 L 727.0 704.0 L 725.0 704.0 L 724.0 705.0 L 722.0 705.0 L 721.0 706.0 L 716.0 707.0 L 711.0 710.0 L 709.0 710.0 L 707.0 712.0 L 702.0 714.0 L 702.0 715.0 L 703.0 715.0 L 704.0 714.0 L 705.0 714.0 L 716.0 708.0 L 718.0 708.0 L 719.0 707.0 L 721.0 707.0 L 722.0 706.0 L 724.0 706.0 L 725.0 705.0 L 727.0 705.0 L 728.0 704.0 L 731.0 704.0 L 732.0 703.0 L 735.0 703.0 Z M 737.0 701.0 L 737.0 702.0 L 740.0 702.0 L 740.0 701.0 Z M 742.0 700.0 L 742.0 701.0 L 746.0 701.0 L 746.0 700.0 Z M 600.0 697.0 L 601.0 696.0 L 602.0 697.0 L 602.0 698.0 L 601.0 699.0 L 600.0 698.0 Z M 901.0 694.0 L 902.0 694.0 L 903.0 693.0 L 909.0 699.0 L 909.0 700.0 L 912.0 703.0 L 912.0 704.0 L 916.0 708.0 L 916.0 709.0 L 920.0 713.0 L 920.0 714.0 L 923.0 717.0 L 923.0 718.0 L 931.0 727.0 L 931.0 728.0 L 934.0 731.0 L 934.0 732.0 L 937.0 735.0 L 937.0 736.0 L 945.0 745.0 L 945.0 746.0 L 947.0 748.0 L 947.0 749.0 L 951.0 753.0 L 951.0 754.0 L 955.0 758.0 L 955.0 759.0 L 959.0 763.0 L 959.0 764.0 L 963.0 768.0 L 963.0 769.0 L 969.0 776.0 L 969.0 778.0 L 966.0 783.0 L 962.0 779.0 L 962.0 778.0 L 959.0 775.0 L 959.0 774.0 L 955.0 770.0 L 955.0 769.0 L 952.0 766.0 L 952.0 765.0 L 946.0 758.0 L 946.0 757.0 L 944.0 755.0 L 944.0 754.0 L 937.0 746.0 L 937.0 745.0 L 935.0 743.0 L 935.0 742.0 L 932.0 739.0 L 932.0 738.0 L 929.0 735.0 L 929.0 734.0 L 926.0 731.0 L 926.0 730.0 L 923.0 727.0 L 923.0 726.0 L 917.0 719.0 L 917.0 718.0 L 912.0 712.0 L 912.0 711.0 L 909.0 708.0 L 909.0 707.0 L 907.0 705.0 L 907.0 704.0 L 900.0 696.0 L 900.0 695.0 Z M 353.0 694.0 L 354.0 695.0 L 351.0 699.0 L 351.0 700.0 L 349.0 702.0 L 349.0 703.0 L 346.0 706.0 L 346.0 707.0 L 343.0 710.0 L 343.0 711.0 L 337.0 718.0 L 337.0 719.0 L 335.0 721.0 L 335.0 722.0 L 331.0 726.0 L 331.0 727.0 L 329.0 729.0 L 329.0 730.0 L 322.0 738.0 L 322.0 739.0 L 320.0 741.0 L 320.0 742.0 L 317.0 745.0 L 317.0 746.0 L 314.0 749.0 L 314.0 750.0 L 311.0 753.0 L 311.0 754.0 L 308.0 757.0 L 308.0 758.0 L 305.0 761.0 L 305.0 762.0 L 302.0 765.0 L 302.0 766.0 L 299.0 769.0 L 299.0 770.0 L 296.0 773.0 L 296.0 774.0 L 293.0 777.0 L 293.0 778.0 L 290.0 781.0 L 290.0 782.0 L 289.0 783.0 L 288.0 783.0 L 285.0 778.0 L 285.0 776.0 L 289.0 772.0 L 289.0 771.0 L 296.0 763.0 L 296.0 762.0 L 299.0 759.0 L 299.0 758.0 L 307.0 749.0 L 307.0 748.0 L 310.0 745.0 L 310.0 744.0 L 313.0 741.0 L 313.0 740.0 L 317.0 736.0 L 317.0 735.0 L 321.0 731.0 L 321.0 730.0 L 324.0 727.0 L 324.0 726.0 L 328.0 722.0 L 328.0 721.0 L 331.0 718.0 L 331.0 717.0 L 336.0 712.0 L 336.0 711.0 L 339.0 708.0 L 339.0 707.0 L 342.0 704.0 L 342.0 703.0 L 346.0 699.0 L 346.0 698.0 L 351.0 693.0 L 352.0 694.0 Z M 719.0 693.0 L 718.0 693.0 L 717.0 694.0 L 715.0 694.0 L 714.0 695.0 L 713.0 695.0 L 713.0 696.0 L 714.0 696.0 L 715.0 695.0 L 717.0 695.0 L 718.0 694.0 L 719.0 694.0 Z M 834.0 692.0 L 832.0 692.0 L 829.0 694.0 L 826.0 694.0 L 825.0 695.0 L 822.0 695.0 L 821.0 696.0 L 815.0 696.0 L 814.0 697.0 L 805.0 697.0 L 804.0 698.0 L 785.0 698.0 L 784.0 697.0 L 772.0 697.0 L 771.0 698.0 L 756.0 698.0 L 755.0 699.0 L 748.0 699.0 L 748.0 700.0 L 755.0 700.0 L 756.0 699.0 L 773.0 699.0 L 774.0 698.0 L 775.0 699.0 L 808.0 699.0 L 809.0 698.0 L 817.0 698.0 L 818.0 697.0 L 823.0 697.0 L 824.0 696.0 L 827.0 696.0 L 828.0 695.0 L 833.0 694.0 L 834.0 693.0 Z M 743.0 692.0 L 743.0 693.0 L 746.0 693.0 L 746.0 692.0 Z M 492.0 692.0 L 492.0 693.0 L 495.0 693.0 L 495.0 692.0 Z M 420.0 692.0 L 420.0 693.0 L 421.0 693.0 L 424.0 695.0 L 427.0 695.0 L 428.0 696.0 L 430.0 696.0 L 431.0 697.0 L 436.0 697.0 L 437.0 698.0 L 447.0 698.0 L 448.0 699.0 L 465.0 699.0 L 465.0 698.0 L 449.0 698.0 L 448.0 697.0 L 439.0 697.0 L 438.0 696.0 L 433.0 696.0 L 432.0 695.0 L 429.0 695.0 L 428.0 694.0 L 426.0 694.0 L 425.0 693.0 Z M 476.0 691.0 L 476.0 692.0 L 487.0 692.0 L 487.0 691.0 Z M 349.0 691.0 L 350.0 690.0 L 351.0 690.0 L 352.0 691.0 L 351.0 692.0 L 350.0 692.0 Z M 1079.0 685.0 L 1084.0 705.0 L 1083.0 727.0 L 1069.0 753.0 L 1052.0 806.0 L 1067.0 782.0 L 1077.0 772.0 L 1104.0 759.0 L 1105.0 761.0 L 1095.0 785.0 L 1082.0 799.0 L 1059.0 808.0 L 1049.0 816.0 L 1020.0 872.0 L 1041.0 850.0 L 1054.0 842.0 L 1080.0 835.0 L 1081.0 838.0 L 1069.0 858.0 L 1055.0 870.0 L 1039.0 876.0 L 1026.0 877.0 L 1015.0 883.0 L 976.0 934.0 L 1003.0 914.0 L 1019.0 909.0 L 1042.0 907.0 L 1039.0 914.0 L 1023.0 931.0 L 1002.0 940.0 L 981.0 939.0 L 967.0 944.0 L 925.0 984.0 L 946.0 973.0 L 960.0 969.0 L 977.0 969.0 L 989.0 971.0 L 992.0 974.0 L 973.0 989.0 L 959.0 994.0 L 945.0 994.0 L 930.0 990.0 L 916.0 992.0 L 866.0 1025.0 L 897.0 1016.0 L 918.0 1018.0 L 935.0 1024.0 L 914.0 1037.0 L 895.0 1040.0 L 869.0 1032.0 L 857.0 1032.0 L 798.0 1059.0 L 802.0 1060.0 L 827.0 1054.0 L 845.0 1056.0 L 868.0 1066.0 L 856.0 1073.0 L 838.0 1078.0 L 830.0 1078.0 L 817.0 1075.0 L 797.0 1065.0 L 783.0 1065.0 L 755.0 1075.0 L 723.0 1083.0 L 756.0 1082.0 L 766.0 1084.0 L 792.0 1098.0 L 791.0 1101.0 L 772.0 1106.0 L 755.0 1106.0 L 740.0 1101.0 L 724.0 1090.0 L 703.0 1088.0 L 670.0 1096.0 L 656.0 1103.0 L 646.0 1112.0 L 641.0 1109.0 L 652.0 1098.0 L 663.0 1092.0 L 710.0 1080.0 L 718.0 1074.0 L 729.0 1054.0 L 738.0 1043.0 L 751.0 1034.0 L 768.0 1027.0 L 767.0 1036.0 L 757.0 1055.0 L 743.0 1068.0 L 725.0 1077.0 L 782.0 1059.0 L 791.0 1050.0 L 799.0 1028.0 L 808.0 1014.0 L 833.0 997.0 L 835.0 1000.0 L 832.0 1013.0 L 824.0 1030.0 L 812.0 1043.0 L 799.0 1052.0 L 816.0 1046.0 L 850.0 1028.0 L 860.0 1015.0 L 863.0 995.0 L 870.0 978.0 L 893.0 956.0 L 893.0 975.0 L 890.0 987.0 L 880.0 1004.0 L 865.0 1019.0 L 888.0 1005.0 L 912.0 987.0 L 918.0 980.0 L 922.0 967.0 L 922.0 935.0 L 927.0 923.0 L 941.0 904.0 L 945.0 921.0 L 944.0 943.0 L 939.0 955.0 L 926.0 974.0 L 937.0 966.0 L 964.0 939.0 L 970.0 929.0 L 971.0 914.0 L 966.0 898.0 L 966.0 882.0 L 978.0 852.0 L 980.0 852.0 L 987.0 872.0 L 988.0 892.0 L 976.0 924.0 L 993.0 904.0 L 1010.0 878.0 L 1012.0 860.0 L 1005.0 846.0 L 1001.0 827.0 L 1002.0 814.0 L 1010.0 791.0 L 1021.0 811.0 L 1024.0 822.0 L 1024.0 839.0 L 1016.0 868.0 L 1028.0 848.0 L 1044.0 812.0 L 1044.0 799.0 L 1030.0 768.0 L 1030.0 749.0 L 1033.0 733.0 L 1035.0 732.0 L 1041.0 739.0 L 1051.0 759.0 L 1052.0 779.0 L 1048.0 794.0 L 1049.0 803.0 L 1065.0 754.0 L 1062.0 734.0 L 1064.0 711.0 L 1076.0 685.0 Z M 175.0 684.0 L 177.0 684.0 L 185.0 700.0 L 190.0 715.0 L 191.0 733.0 L 188.0 754.0 L 204.0 802.0 L 205.0 792.0 L 201.0 777.0 L 202.0 759.0 L 218.0 732.0 L 220.0 735.0 L 224.0 758.0 L 223.0 769.0 L 210.0 797.0 L 209.0 811.0 L 225.0 847.0 L 237.0 867.0 L 230.0 842.0 L 229.0 824.0 L 232.0 812.0 L 244.0 791.0 L 252.0 817.0 L 252.0 833.0 L 241.0 861.0 L 242.0 874.0 L 260.0 903.0 L 279.0 926.0 L 269.0 904.0 L 265.0 888.0 L 267.0 870.0 L 272.0 856.0 L 276.0 852.0 L 284.0 869.0 L 288.0 884.0 L 287.0 901.0 L 282.0 919.0 L 284.0 930.0 L 289.0 938.0 L 319.0 968.0 L 327.0 974.0 L 315.0 956.0 L 309.0 941.0 L 308.0 924.0 L 313.0 904.0 L 325.0 921.0 L 332.0 937.0 L 332.0 971.0 L 336.0 981.0 L 363.0 1003.0 L 386.0 1017.0 L 372.0 1002.0 L 363.0 986.0 L 360.0 969.0 L 361.0 956.0 L 385.0 980.0 L 391.0 997.0 L 394.0 1017.0 L 404.0 1028.0 L 440.0 1047.0 L 458.0 1054.0 L 442.0 1043.0 L 428.0 1027.0 L 421.0 1009.0 L 419.0 999.0 L 421.0 997.0 L 438.0 1007.0 L 449.0 1018.0 L 457.0 1033.0 L 463.0 1051.0 L 472.0 1059.0 L 526.0 1076.0 L 508.0 1066.0 L 496.0 1054.0 L 487.0 1036.0 L 486.0 1027.0 L 503.0 1034.0 L 516.0 1043.0 L 525.0 1054.0 L 534.0 1072.0 L 542.0 1079.0 L 589.0 1091.0 L 602.0 1098.0 L 614.0 1109.0 L 609.0 1112.0 L 599.0 1103.0 L 585.0 1096.0 L 552.0 1088.0 L 530.0 1090.0 L 513.0 1102.0 L 500.0 1106.0 L 482.0 1106.0 L 461.0 1099.0 L 489.0 1084.0 L 498.0 1082.0 L 531.0 1083.0 L 471.0 1065.0 L 457.0 1065.0 L 439.0 1074.0 L 422.0 1078.0 L 399.0 1073.0 L 386.0 1066.0 L 403.0 1058.0 L 421.0 1054.0 L 452.0 1060.0 L 456.0 1059.0 L 399.0 1032.0 L 385.0 1032.0 L 358.0 1040.0 L 336.0 1035.0 L 319.0 1024.0 L 335.0 1018.0 L 358.0 1016.0 L 388.0 1025.0 L 339.0 992.0 L 324.0 990.0 L 310.0 994.0 L 292.0 993.0 L 281.0 989.0 L 262.0 974.0 L 262.0 972.0 L 277.0 969.0 L 295.0 969.0 L 329.0 984.0 L 287.0 944.0 L 272.0 939.0 L 248.0 939.0 L 231.0 931.0 L 211.0 909.0 L 212.0 907.0 L 230.0 908.0 L 249.0 913.0 L 279.0 935.0 L 240.0 884.0 L 228.0 877.0 L 211.0 875.0 L 197.0 869.0 L 183.0 856.0 L 175.0 843.0 L 173.0 835.0 L 204.0 844.0 L 214.0 851.0 L 234.0 873.0 L 205.0 817.0 L 196.0 809.0 L 170.0 798.0 L 157.0 783.0 L 148.0 760.0 L 160.0 763.0 L 175.0 771.0 L 187.0 783.0 L 201.0 806.0 L 185.0 755.0 L 170.0 727.0 L 169.0 706.0 Z M 960.0 796.0 L 957.0 797.0 L 852.0 786.0 L 814.0 785.0 L 778.0 788.0 L 750.0 794.0 L 724.0 803.0 L 701.0 815.0 L 682.0 829.0 L 671.0 840.0 L 670.0 839.0 L 684.0 823.0 L 698.0 812.0 L 713.0 803.0 L 733.0 794.0 L 769.0 784.0 L 800.0 780.0 L 854.0 780.0 L 942.0 788.0 L 940.0 783.0 L 931.0 773.0 L 935.0 772.0 L 934.0 769.0 L 878.0 685.0 L 880.0 682.0 L 889.0 692.0 Z M 426.0 683.0 L 426.0 684.0 L 427.0 684.0 L 430.0 686.0 L 432.0 686.0 L 433.0 687.0 L 435.0 687.0 L 436.0 688.0 L 438.0 688.0 L 439.0 689.0 L 443.0 689.0 L 444.0 690.0 L 453.0 690.0 L 454.0 691.0 L 472.0 691.0 L 472.0 690.0 L 456.0 690.0 L 455.0 689.0 L 447.0 689.0 L 446.0 688.0 L 442.0 688.0 L 441.0 687.0 L 437.0 687.0 L 436.0 686.0 L 431.0 685.0 L 428.0 683.0 Z M 294.0 796.0 L 360.0 699.0 L 374.0 682.0 L 376.0 685.0 L 371.0 691.0 L 320.0 769.0 L 319.0 772.0 L 323.0 773.0 L 315.0 782.0 L 312.0 788.0 L 402.0 780.0 L 451.0 780.0 L 479.0 783.0 L 509.0 790.0 L 545.0 805.0 L 567.0 820.0 L 582.0 836.0 L 581.0 837.0 L 565.0 823.0 L 553.0 815.0 L 530.0 803.0 L 508.0 795.0 L 468.0 787.0 L 441.0 785.0 L 402.0 786.0 L 325.0 793.0 L 298.0 797.0 Z M 828.0 682.0 L 827.0 682.0 L 822.0 685.0 L 820.0 685.0 L 819.0 686.0 L 816.0 686.0 L 815.0 687.0 L 812.0 687.0 L 811.0 688.0 L 805.0 688.0 L 804.0 689.0 L 771.0 689.0 L 770.0 690.0 L 756.0 690.0 L 755.0 691.0 L 749.0 691.0 L 749.0 692.0 L 755.0 692.0 L 756.0 691.0 L 798.0 691.0 L 799.0 690.0 L 808.0 690.0 L 809.0 689.0 L 813.0 689.0 L 814.0 688.0 L 817.0 688.0 L 818.0 687.0 L 821.0 687.0 L 824.0 685.0 L 826.0 685.0 L 828.0 683.0 Z M 568.0 677.0 L 569.0 678.0 L 566.0 681.0 L 565.0 681.0 L 564.0 680.0 L 567.0 677.0 Z M 561.0 675.0 L 562.0 676.0 L 559.0 679.0 L 558.0 679.0 L 557.0 678.0 L 560.0 675.0 Z M 347.0 672.0 L 348.0 671.0 L 349.0 671.0 L 350.0 672.0 L 349.0 673.0 L 348.0 673.0 Z M 559.0 667.0 L 560.0 668.0 L 554.0 674.0 L 553.0 674.0 L 552.0 673.0 L 558.0 667.0 Z M 345.0 667.0 L 346.0 668.0 L 343.0 671.0 L 342.0 671.0 L 341.0 670.0 L 344.0 667.0 Z M 598.0 667.0 L 597.0 667.0 L 595.0 669.0 L 595.0 670.0 L 596.0 670.0 L 598.0 668.0 Z M 352.0 668.0 L 354.0 666.0 L 355.0 666.0 L 356.0 667.0 L 354.0 669.0 L 353.0 669.0 Z M 535.0 666.0 L 536.0 665.0 L 537.0 666.0 L 537.0 667.0 L 536.0 668.0 L 535.0 667.0 Z M 538.0 662.0 L 539.0 663.0 L 539.0 664.0 L 537.0 666.0 L 536.0 665.0 L 536.0 664.0 Z M 373.0 725.0 L 395.0 689.0 L 419.0 658.0 L 428.0 669.0 L 446.0 679.0 L 517.0 683.0 L 553.0 692.0 L 584.0 710.0 L 605.0 732.0 L 620.0 759.0 L 624.0 773.0 L 625.0 788.0 L 620.0 785.0 L 622.0 781.0 L 618.0 769.0 L 603.0 740.0 L 584.0 720.0 L 567.0 708.0 L 537.0 696.0 L 570.0 712.0 L 594.0 733.0 L 593.0 735.0 L 579.0 722.0 L 580.0 727.0 L 567.0 718.0 L 547.0 709.0 L 576.0 726.0 L 596.0 745.0 L 593.0 748.0 L 572.0 729.0 L 545.0 715.0 L 582.0 739.0 L 594.0 752.0 L 591.0 755.0 L 585.0 749.0 L 587.0 747.0 L 561.0 727.0 L 556.0 725.0 L 580.0 743.0 L 578.0 744.0 L 547.0 726.0 L 528.0 721.0 L 546.0 727.0 L 578.0 746.0 L 583.0 751.0 L 580.0 754.0 L 576.0 751.0 L 578.0 750.0 L 577.0 748.0 L 575.0 750.0 L 572.0 748.0 L 574.0 746.0 L 571.0 748.0 L 563.0 742.0 L 535.0 730.0 L 562.0 743.0 L 570.0 749.0 L 568.0 751.0 L 570.0 749.0 L 591.0 766.0 L 588.0 769.0 L 561.0 749.0 L 537.0 738.0 L 521.0 733.0 L 518.0 734.0 L 531.0 737.0 L 559.0 750.0 L 583.0 767.0 L 599.0 783.0 L 611.0 800.0 L 625.0 831.0 L 631.0 830.0 L 637.0 814.0 L 634.0 806.0 L 639.0 810.0 L 641.0 806.0 L 639.0 802.0 L 658.0 772.0 L 679.0 752.0 L 707.0 734.0 L 692.0 741.0 L 675.0 753.0 L 655.0 773.0 L 638.0 801.0 L 637.0 798.0 L 646.0 781.0 L 661.0 761.0 L 674.0 748.0 L 693.0 734.0 L 720.0 722.0 L 708.0 725.0 L 677.0 743.0 L 654.0 766.0 L 644.0 781.0 L 645.0 775.0 L 661.0 751.0 L 672.0 739.0 L 693.0 724.0 L 700.0 716.0 L 676.0 733.0 L 652.0 760.0 L 639.0 783.0 L 638.0 780.0 L 657.0 747.0 L 675.0 728.0 L 693.0 714.0 L 669.0 731.0 L 655.0 747.0 L 652.0 744.0 L 657.0 737.0 L 678.0 716.0 L 711.0 696.0 L 679.0 713.0 L 661.0 729.0 L 647.0 748.0 L 635.0 775.0 L 633.0 783.0 L 635.0 786.0 L 630.0 788.0 L 634.0 762.0 L 649.0 733.0 L 671.0 709.0 L 705.0 688.0 L 725.0 681.0 L 742.0 678.0 L 807.0 678.0 L 822.0 671.0 L 835.0 658.0 L 857.0 686.0 L 881.0 725.0 L 869.0 731.0 L 845.0 736.0 L 751.0 742.0 L 729.0 747.0 L 705.0 756.0 L 676.0 774.0 L 653.0 797.0 L 643.0 812.0 L 635.0 832.0 L 642.0 834.0 L 653.0 813.0 L 674.0 790.0 L 698.0 773.0 L 728.0 759.0 L 755.0 751.0 L 795.0 745.0 L 888.0 744.0 L 882.0 735.0 L 883.0 733.0 L 893.0 746.0 L 870.0 749.0 L 781.0 752.0 L 753.0 757.0 L 724.0 766.0 L 685.0 787.0 L 668.0 801.0 L 652.0 820.0 L 645.0 835.0 L 653.0 839.0 L 663.0 849.0 L 664.0 855.0 L 647.0 841.0 L 634.0 837.0 L 621.0 837.0 L 604.0 843.0 L 589.0 857.0 L 590.0 851.0 L 600.0 840.0 L 610.0 835.0 L 611.0 832.0 L 620.0 832.0 L 614.0 816.0 L 600.0 795.0 L 582.0 777.0 L 562.0 763.0 L 531.0 749.0 L 507.0 743.0 L 474.0 739.0 L 415.0 737.0 L 385.0 731.0 Z M 355.0 658.0 L 356.0 659.0 L 351.0 664.0 L 350.0 664.0 L 349.0 663.0 L 354.0 658.0 Z M 726.0 648.0 L 727.0 647.0 L 728.0 647.0 L 729.0 648.0 L 728.0 649.0 L 727.0 649.0 Z M 589.0 645.0 L 588.0 645.0 L 585.0 648.0 L 585.0 649.0 L 586.0 649.0 L 589.0 646.0 Z M 944.0 643.0 L 944.0 646.0 L 943.0 647.0 L 943.0 671.0 L 944.0 672.0 L 944.0 674.0 L 945.0 674.0 L 945.0 643.0 Z M 311.0 643.0 L 311.0 649.0 L 310.0 650.0 L 310.0 653.0 L 311.0 654.0 L 311.0 673.0 L 312.0 673.0 L 312.0 643.0 Z M 835.0 638.0 L 854.0 656.0 L 883.0 678.0 L 903.0 690.0 L 899.0 692.0 L 886.0 685.0 L 879.0 679.0 L 877.0 681.0 L 855.0 663.0 L 868.0 680.0 L 886.0 707.0 L 902.0 734.0 L 923.0 766.0 L 922.0 767.0 L 909.0 767.0 L 908.0 766.0 L 896.0 766.0 L 895.0 765.0 L 878.0 764.0 L 877.0 763.0 L 860.0 761.0 L 854.0 759.0 L 848.0 759.0 L 841.0 757.0 L 833.0 757.0 L 829.0 755.0 L 833.0 754.0 L 834.0 755.0 L 880.0 756.0 L 881.0 755.0 L 901.0 755.0 L 905.0 754.0 L 900.0 744.0 L 893.0 734.0 L 890.0 725.0 L 873.0 697.0 L 856.0 672.0 L 836.0 645.0 L 835.0 645.0 L 832.0 650.0 L 828.0 647.0 Z M 561.0 637.0 L 560.0 637.0 L 557.0 640.0 L 557.0 641.0 L 558.0 641.0 L 561.0 638.0 Z M 422.0 630.0 L 423.0 633.0 L 421.0 639.0 L 421.0 646.0 L 418.0 647.0 L 414.0 651.0 L 389.0 685.0 L 370.0 715.0 L 368.0 720.0 L 363.0 727.0 L 362.0 732.0 L 349.0 754.0 L 353.0 754.0 L 354.0 755.0 L 370.0 755.0 L 371.0 756.0 L 394.0 756.0 L 395.0 755.0 L 421.0 755.0 L 422.0 756.0 L 421.0 757.0 L 413.0 757.0 L 412.0 758.0 L 401.0 759.0 L 400.0 760.0 L 390.0 761.0 L 384.0 763.0 L 370.0 764.0 L 369.0 765.0 L 349.0 766.0 L 348.0 767.0 L 332.0 767.0 L 331.0 766.0 L 342.0 750.0 L 375.0 696.0 L 381.0 689.0 L 398.0 664.0 L 393.0 667.0 L 375.0 683.0 L 373.0 681.0 L 362.0 689.0 L 355.0 692.0 L 351.0 690.0 L 372.0 677.0 L 394.0 660.0 L 411.0 644.0 Z M 567.0 630.0 L 564.0 631.0 L 563.0 632.0 L 563.0 634.0 L 564.0 634.0 L 567.0 631.0 Z M 597.0 629.0 L 596.0 629.0 L 593.0 632.0 L 593.0 633.0 L 594.0 633.0 L 597.0 630.0 Z M 603.0 624.0 L 602.0 624.0 L 601.0 625.0 L 601.0 626.0 L 602.0 626.0 L 603.0 625.0 Z M 399.0 624.0 L 398.0 624.0 L 395.0 627.0 L 395.0 628.0 L 396.0 628.0 L 399.0 625.0 Z M 396.0 618.0 L 395.0 618.0 L 390.0 623.0 L 390.0 624.0 L 391.0 624.0 L 396.0 619.0 Z M 401.0 614.0 L 400.0 614.0 L 398.0 616.0 L 398.0 617.0 L 399.0 617.0 L 401.0 615.0 Z M 412.0 612.0 L 411.0 612.0 L 402.0 621.0 L 402.0 622.0 L 403.0 622.0 L 412.0 613.0 Z M 925.0 602.0 L 925.0 612.0 L 924.0 613.0 L 924.0 646.0 L 925.0 647.0 L 925.0 655.0 L 926.0 655.0 L 926.0 642.0 L 927.0 641.0 L 927.0 607.0 L 926.0 606.0 L 926.0 602.0 Z M 330.0 602.0 L 330.0 618.0 L 329.0 619.0 L 329.0 625.0 L 330.0 626.0 L 330.0 654.0 L 331.0 654.0 L 331.0 649.0 L 332.0 648.0 L 332.0 609.0 L 331.0 608.0 L 331.0 602.0 Z M 628.0 596.0 L 629.0 597.0 L 629.0 612.0 L 628.0 613.0 L 629.0 622.0 L 627.0 626.0 L 629.0 631.0 L 628.0 650.0 L 630.0 654.0 L 628.0 665.0 L 629.0 682.0 L 628.0 683.0 L 628.0 728.0 L 627.0 729.0 L 626.0 728.0 L 626.0 719.0 L 623.0 717.0 L 624.0 715.0 L 620.0 712.0 L 621.0 711.0 L 619.0 709.0 L 620.0 707.0 L 617.0 706.0 L 616.0 708.0 L 613.0 705.0 L 614.0 703.0 L 612.0 702.0 L 619.0 693.0 L 606.0 702.0 L 605.0 700.0 L 611.0 694.0 L 612.0 690.0 L 605.0 698.0 L 601.0 696.0 L 615.0 679.0 L 599.0 693.0 L 597.0 689.0 L 598.0 687.0 L 592.0 692.0 L 590.0 691.0 L 607.0 672.0 L 598.0 678.0 L 589.0 687.0 L 586.0 684.0 L 594.0 674.0 L 591.0 672.0 L 588.0 675.0 L 589.0 677.0 L 585.0 681.0 L 583.0 678.0 L 604.0 651.0 L 571.0 676.0 L 569.0 673.0 L 581.0 661.0 L 564.0 675.0 L 561.0 673.0 L 579.0 656.0 L 582.0 651.0 L 562.0 667.0 L 560.0 666.0 L 560.0 664.0 L 591.0 634.0 L 577.0 645.0 L 576.0 643.0 L 574.0 644.0 L 571.0 641.0 L 609.0 610.0 L 611.0 611.0 L 616.0 605.0 Z M 592.0 589.0 L 591.0 589.0 L 583.0 597.0 L 583.0 598.0 L 584.0 598.0 L 592.0 590.0 Z M 488.0 589.0 L 487.0 589.0 L 483.0 593.0 L 483.0 594.0 L 484.0 594.0 L 488.0 590.0 Z M 1082.0 579.0 L 1083.0 580.0 L 1083.0 584.0 L 1084.0 585.0 L 1084.0 587.0 L 1085.0 588.0 L 1087.0 593.0 L 1090.0 596.0 L 1090.0 597.0 L 1093.0 600.0 L 1094.0 600.0 L 1099.0 604.0 L 1100.0 604.0 L 1101.0 605.0 L 1103.0 605.0 L 1104.0 606.0 L 1107.0 606.0 L 1108.0 607.0 L 1105.0 609.0 L 1103.0 609.0 L 1102.0 610.0 L 1097.0 612.0 L 1095.0 614.0 L 1094.0 614.0 L 1090.0 618.0 L 1090.0 619.0 L 1087.0 622.0 L 1087.0 623.0 L 1085.0 626.0 L 1085.0 628.0 L 1083.0 631.0 L 1083.0 634.0 L 1082.0 635.0 L 1081.0 635.0 L 1080.0 634.0 L 1080.0 631.0 L 1079.0 630.0 L 1078.0 625.0 L 1076.0 623.0 L 1075.0 620.0 L 1068.0 613.0 L 1067.0 613.0 L 1065.0 611.0 L 1063.0 611.0 L 1060.0 609.0 L 1057.0 609.0 L 1055.0 607.0 L 1056.0 606.0 L 1059.0 606.0 L 1062.0 604.0 L 1064.0 604.0 L 1065.0 603.0 L 1066.0 603.0 L 1074.0 596.0 L 1074.0 595.0 L 1076.0 593.0 L 1076.0 592.0 L 1078.0 589.0 L 1078.0 587.0 L 1079.0 586.0 L 1080.0 581.0 Z M 172.0 578.0 L 173.0 579.0 L 173.0 582.0 L 174.0 583.0 L 174.0 586.0 L 175.0 587.0 L 178.0 594.0 L 186.0 602.0 L 187.0 602.0 L 191.0 605.0 L 193.0 605.0 L 194.0 606.0 L 196.0 606.0 L 197.0 607.0 L 195.0 609.0 L 193.0 609.0 L 192.0 610.0 L 187.0 612.0 L 180.0 618.0 L 180.0 619.0 L 178.0 621.0 L 178.0 622.0 L 174.0 629.0 L 174.0 631.0 L 173.0 632.0 L 173.0 634.0 L 172.0 635.0 L 170.0 632.0 L 169.0 627.0 L 168.0 626.0 L 167.0 623.0 L 165.0 621.0 L 165.0 620.0 L 158.0 613.0 L 155.0 612.0 L 153.0 610.0 L 148.0 609.0 L 146.0 607.0 L 147.0 606.0 L 149.0 606.0 L 150.0 605.0 L 152.0 605.0 L 153.0 604.0 L 156.0 603.0 L 158.0 601.0 L 159.0 601.0 L 164.0 596.0 L 164.0 595.0 L 166.0 593.0 L 166.0 592.0 L 169.0 587.0 L 169.0 585.0 L 170.0 584.0 L 170.0 582.0 L 171.0 581.0 L 171.0 579.0 Z M 434.0 575.0 L 433.0 575.0 L 432.0 576.0 L 432.0 577.0 L 433.0 577.0 L 434.0 576.0 Z M 525.0 565.0 L 524.0 565.0 L 523.0 566.0 L 523.0 567.0 L 524.0 567.0 L 525.0 566.0 Z M 529.0 548.0 L 528.0 548.0 L 522.0 554.0 L 522.0 555.0 L 523.0 555.0 L 529.0 549.0 Z M 796.0 533.0 L 797.0 534.0 L 797.0 556.0 L 798.0 557.0 L 798.0 560.0 L 799.0 561.0 L 799.0 564.0 L 800.0 565.0 L 800.0 569.0 L 801.0 571.0 L 798.0 577.0 L 798.0 580.0 L 797.0 581.0 L 797.0 584.0 L 796.0 585.0 L 796.0 588.0 L 795.0 589.0 L 795.0 593.0 L 806.0 604.0 L 806.0 605.0 L 815.0 614.0 L 815.0 615.0 L 822.0 622.0 L 823.0 624.0 L 827.0 622.0 L 832.0 617.0 L 834.0 616.0 L 839.0 622.0 L 839.0 623.0 L 842.0 626.0 L 842.0 627.0 L 845.0 630.0 L 845.0 631.0 L 848.0 634.0 L 848.0 635.0 L 851.0 638.0 L 851.0 639.0 L 860.0 649.0 L 859.0 650.0 L 858.0 650.0 L 849.0 641.0 L 848.0 641.0 L 835.0 629.0 L 833.0 629.0 L 832.0 631.0 L 825.0 638.0 L 825.0 639.0 L 823.0 641.0 L 820.0 638.0 L 820.0 637.0 L 809.0 626.0 L 809.0 625.0 L 789.0 605.0 L 789.0 604.0 L 785.0 601.0 L 785.0 600.0 L 780.0 595.0 L 780.0 594.0 L 778.0 594.0 L 777.0 592.0 L 770.0 585.0 L 772.0 581.0 L 768.0 583.0 L 764.0 579.0 L 764.0 578.0 L 763.0 578.0 L 759.0 574.0 L 778.0 554.0 L 778.0 553.0 L 788.0 543.0 L 788.0 542.0 L 794.0 536.0 L 794.0 535.0 Z M 456.0 533.0 L 457.0 534.0 L 457.0 538.0 L 456.0 539.0 L 456.0 544.0 L 457.0 545.0 L 456.0 548.0 L 456.0 556.0 L 457.0 559.0 L 456.0 561.0 L 458.0 567.0 L 457.0 581.0 L 456.0 582.0 L 456.0 585.0 L 445.0 597.0 L 445.0 600.0 L 443.0 606.0 L 440.0 611.0 L 440.0 613.0 L 435.0 623.0 L 435.0 625.0 L 434.0 626.0 L 433.0 625.0 L 433.0 621.0 L 432.0 620.0 L 432.0 611.0 L 433.0 609.0 L 432.0 609.0 L 401.0 641.0 L 400.0 639.0 L 410.0 624.0 L 409.0 624.0 L 396.0 637.0 L 384.0 647.0 L 364.0 662.0 L 357.0 666.0 L 356.0 665.0 L 392.0 631.0 L 392.0 630.0 L 391.0 630.0 L 382.0 639.0 L 362.0 656.0 L 360.0 656.0 L 357.0 659.0 L 355.0 658.0 L 373.0 639.0 L 374.0 636.0 L 391.0 611.0 L 393.0 606.0 L 395.0 605.0 L 395.0 604.0 L 401.0 598.0 L 408.0 601.0 L 410.0 600.0 L 414.0 592.0 L 419.0 585.0 L 421.0 580.0 L 426.0 573.0 L 430.0 564.0 L 437.0 558.0 Z M 610.0 523.0 L 609.0 523.0 L 608.0 524.0 L 608.0 525.0 L 609.0 525.0 L 610.0 524.0 Z M 563.0 519.0 L 562.0 519.0 L 556.0 525.0 L 555.0 525.0 L 551.0 529.0 L 551.0 530.0 L 552.0 530.0 L 555.0 527.0 L 556.0 527.0 L 563.0 520.0 Z M 890.0 518.0 L 890.0 534.0 L 889.0 535.0 L 889.0 579.0 L 890.0 580.0 L 890.0 585.0 L 889.0 586.0 L 889.0 593.0 L 890.0 594.0 L 890.0 613.0 L 891.0 614.0 L 891.0 615.0 L 892.0 615.0 L 892.0 519.0 L 891.0 518.0 Z M 367.0 518.0 L 365.0 518.0 L 365.0 526.0 L 364.0 527.0 L 364.0 609.0 L 365.0 610.0 L 365.0 615.0 L 366.0 615.0 L 366.0 613.0 L 367.0 612.0 Z M 615.0 517.0 L 614.0 517.0 L 613.0 518.0 L 613.0 519.0 L 614.0 519.0 L 615.0 518.0 Z M 647.0 514.0 L 651.0 518.0 L 652.0 518.0 L 658.0 524.0 L 659.0 524.0 L 665.0 530.0 L 666.0 530.0 L 671.0 535.0 L 672.0 535.0 L 680.0 543.0 L 682.0 543.0 L 683.0 542.0 L 685.0 542.0 L 686.0 541.0 L 688.0 541.0 L 689.0 540.0 L 691.0 540.0 L 692.0 541.0 L 692.0 542.0 L 693.0 543.0 L 693.0 545.0 L 694.0 546.0 L 694.0 549.0 L 695.0 550.0 L 695.0 552.0 L 696.0 553.0 L 696.0 556.0 L 697.0 557.0 L 697.0 559.0 L 698.0 560.0 L 698.0 563.0 L 699.0 564.0 L 699.0 569.0 L 704.0 575.0 L 704.0 576.0 L 706.0 578.0 L 706.0 579.0 L 709.0 582.0 L 709.0 583.0 L 711.0 585.0 L 711.0 586.0 L 714.0 589.0 L 714.0 590.0 L 716.0 592.0 L 716.0 593.0 L 723.0 601.0 L 723.0 602.0 L 725.0 604.0 L 725.0 605.0 L 729.0 609.0 L 729.0 610.0 L 736.0 617.0 L 736.0 618.0 L 741.0 623.0 L 741.0 624.0 L 740.0 625.0 L 734.0 619.0 L 733.0 619.0 L 729.0 615.0 L 728.0 615.0 L 721.0 608.0 L 720.0 608.0 L 715.0 603.0 L 714.0 603.0 L 712.0 601.0 L 712.0 600.0 L 703.0 591.0 L 703.0 590.0 L 698.0 585.0 L 698.0 584.0 L 689.0 574.0 L 689.0 573.0 L 686.0 570.0 L 686.0 569.0 L 678.0 560.0 L 678.0 559.0 L 675.0 556.0 L 675.0 555.0 L 672.0 552.0 L 672.0 551.0 L 669.0 548.0 L 669.0 547.0 L 666.0 544.0 L 666.0 543.0 L 660.0 536.0 L 660.0 535.0 L 658.0 533.0 L 658.0 532.0 L 656.0 530.0 L 656.0 529.0 L 653.0 526.0 L 653.0 525.0 L 650.0 522.0 L 650.0 521.0 L 646.0 516.0 L 646.0 515.0 Z M 562.0 515.0 L 561.0 515.0 L 560.0 516.0 L 560.0 517.0 L 561.0 517.0 L 562.0 516.0 Z M 909.0 508.0 L 909.0 515.0 L 908.0 516.0 L 908.0 630.0 L 909.0 631.0 L 909.0 635.0 L 910.0 635.0 L 910.0 609.0 L 911.0 608.0 L 911.0 520.0 L 910.0 519.0 L 910.0 508.0 Z M 347.0 507.0 L 347.0 517.0 L 346.0 518.0 L 346.0 623.0 L 347.0 624.0 L 347.0 634.0 L 348.0 634.0 L 348.0 630.0 L 349.0 629.0 L 349.0 516.0 L 348.0 515.0 L 348.0 507.0 Z M 456.0 498.0 L 456.0 509.0 L 457.0 509.0 L 457.0 498.0 Z M 577.0 497.0 L 576.0 497.0 L 574.0 499.0 L 574.0 500.0 L 569.0 505.0 L 569.0 506.0 L 565.0 510.0 L 565.0 511.0 L 566.0 511.0 L 570.0 507.0 L 570.0 506.0 L 576.0 500.0 Z M 797.0 496.0 L 797.0 510.0 L 798.0 510.0 L 798.0 496.0 Z M 784.0 496.0 L 784.0 518.0 L 785.0 518.0 L 785.0 496.0 Z M 583.0 491.0 L 582.0 491.0 L 580.0 493.0 L 580.0 494.0 L 581.0 494.0 L 583.0 492.0 Z M 773.0 489.0 L 773.0 504.0 L 772.0 505.0 L 772.0 509.0 L 773.0 510.0 L 772.0 511.0 L 772.0 512.0 L 773.0 513.0 L 773.0 529.0 L 774.0 529.0 L 774.0 489.0 Z M 866.0 482.0 L 866.0 583.0 L 867.0 584.0 L 868.0 584.0 L 868.0 555.0 L 869.0 554.0 L 869.0 549.0 L 868.0 548.0 L 868.0 534.0 L 869.0 533.0 L 869.0 525.0 L 868.0 524.0 L 868.0 482.0 Z M 390.0 482.0 L 389.0 482.0 L 388.0 483.0 L 388.0 583.0 L 390.0 583.0 L 390.0 534.0 L 391.0 533.0 L 391.0 526.0 L 390.0 525.0 L 390.0 521.0 L 391.0 520.0 L 391.0 509.0 L 390.0 508.0 L 390.0 507.0 L 391.0 506.0 L 391.0 500.0 L 390.0 499.0 Z M 848.0 470.0 L 848.0 482.0 L 847.0 483.0 L 847.0 555.0 L 848.0 556.0 L 848.0 559.0 L 849.0 559.0 L 849.0 552.0 L 850.0 551.0 L 850.0 493.0 L 849.0 492.0 L 849.0 470.0 Z M 409.0 470.0 L 409.0 491.0 L 408.0 492.0 L 408.0 547.0 L 409.0 548.0 L 409.0 557.0 L 410.0 557.0 L 410.0 549.0 L 411.0 548.0 L 411.0 492.0 L 410.0 491.0 L 410.0 488.0 L 411.0 487.0 L 411.0 484.0 L 410.0 483.0 L 410.0 470.0 Z M 469.0 468.0 L 469.0 482.0 L 470.0 482.0 L 470.0 468.0 Z M 784.0 467.0 L 784.0 483.0 L 785.0 483.0 L 785.0 467.0 Z M 1099.0 460.0 L 1099.0 462.0 L 1100.0 463.0 L 1100.0 465.0 L 1101.0 466.0 L 1101.0 469.0 L 1102.0 470.0 L 1102.0 473.0 L 1103.0 474.0 L 1103.0 476.0 L 1104.0 477.0 L 1104.0 479.0 L 1105.0 480.0 L 1105.0 483.0 L 1106.0 484.0 L 1106.0 486.0 L 1105.0 487.0 L 1104.0 487.0 L 1099.0 481.0 L 1095.0 481.0 L 1094.0 482.0 L 1092.0 482.0 L 1091.0 483.0 L 1088.0 483.0 L 1087.0 484.0 L 1085.0 484.0 L 1084.0 485.0 L 1082.0 485.0 L 1081.0 486.0 L 1078.0 486.0 L 1077.0 487.0 L 1075.0 487.0 L 1074.0 488.0 L 1071.0 488.0 L 1070.0 489.0 L 1068.0 489.0 L 1067.0 490.0 L 1065.0 490.0 L 1064.0 491.0 L 1062.0 491.0 L 1061.0 492.0 L 1058.0 492.0 L 1057.0 493.0 L 1055.0 493.0 L 1054.0 494.0 L 1051.0 494.0 L 1050.0 495.0 L 1048.0 495.0 L 1047.0 496.0 L 1045.0 496.0 L 1044.0 497.0 L 1041.0 497.0 L 1040.0 498.0 L 1038.0 498.0 L 1035.0 500.0 L 1035.0 502.0 L 1034.0 503.0 L 1034.0 506.0 L 1033.0 507.0 L 1032.0 507.0 L 1031.0 506.0 L 1031.0 505.0 L 1030.0 504.0 L 1030.0 501.0 L 1029.0 500.0 L 1029.0 497.0 L 1028.0 496.0 L 1028.0 494.0 L 1027.0 493.0 L 1027.0 490.0 L 1026.0 489.0 L 1026.0 487.0 L 1025.0 486.0 L 1025.0 483.0 L 1024.0 482.0 L 1026.0 480.0 L 1028.0 482.0 L 1028.0 483.0 L 1032.0 486.0 L 1034.0 486.0 L 1035.0 485.0 L 1037.0 485.0 L 1038.0 484.0 L 1041.0 484.0 L 1042.0 483.0 L 1045.0 483.0 L 1046.0 482.0 L 1048.0 482.0 L 1049.0 481.0 L 1051.0 481.0 L 1052.0 480.0 L 1055.0 480.0 L 1056.0 479.0 L 1058.0 479.0 L 1059.0 478.0 L 1061.0 478.0 L 1062.0 477.0 L 1065.0 477.0 L 1066.0 476.0 L 1068.0 476.0 L 1069.0 475.0 L 1071.0 475.0 L 1072.0 474.0 L 1075.0 474.0 L 1076.0 473.0 L 1078.0 473.0 L 1079.0 472.0 L 1082.0 472.0 L 1083.0 471.0 L 1085.0 471.0 L 1086.0 470.0 L 1089.0 470.0 L 1090.0 469.0 L 1092.0 469.0 L 1093.0 468.0 L 1094.0 468.0 L 1094.0 467.0 L 1095.0 466.0 L 1095.0 461.0 L 1097.0 459.0 L 1098.0 459.0 Z M 814.0 456.0 L 814.0 492.0 L 813.0 493.0 L 813.0 505.0 L 814.0 506.0 L 814.0 524.0 L 815.0 524.0 L 815.0 515.0 L 816.0 514.0 L 816.0 458.0 L 815.0 457.0 L 815.0 456.0 Z M 442.0 456.0 L 442.0 475.0 L 441.0 476.0 L 441.0 489.0 L 442.0 490.0 L 442.0 518.0 L 443.0 518.0 L 443.0 499.0 L 444.0 498.0 L 444.0 464.0 L 443.0 463.0 L 443.0 456.0 Z M 631.0 454.0 L 634.0 461.0 L 635.0 475.0 L 646.0 493.0 L 633.0 527.0 L 616.0 544.0 L 613.0 544.0 L 590.0 577.0 L 629.0 543.0 L 660.0 576.0 L 658.0 579.0 L 661.0 577.0 L 719.0 637.0 L 721.0 642.0 L 713.0 638.0 L 708.0 633.0 L 710.0 631.0 L 707.0 633.0 L 693.0 622.0 L 628.0 554.0 L 614.0 581.0 L 613.0 587.0 L 601.0 597.0 L 601.0 601.0 L 570.0 640.0 L 572.0 642.0 L 542.0 667.0 L 540.0 666.0 L 541.0 663.0 L 560.0 644.0 L 538.0 662.0 L 548.0 646.0 L 548.0 641.0 L 570.0 598.0 L 505.0 650.0 L 469.0 672.0 L 531.0 606.0 L 526.0 604.0 L 539.0 592.0 L 565.0 559.0 L 572.0 564.0 L 574.0 563.0 L 592.0 524.0 L 600.0 517.0 L 612.0 487.0 Z M 798.0 445.0 L 797.0 446.0 L 797.0 484.0 L 798.0 485.0 L 799.0 485.0 L 799.0 445.0 Z M 456.0 445.0 L 456.0 457.0 L 455.0 458.0 L 455.0 475.0 L 456.0 476.0 L 456.0 485.0 L 457.0 485.0 L 457.0 483.0 L 458.0 482.0 L 458.0 447.0 L 457.0 446.0 L 457.0 445.0 Z M 890.0 434.0 L 890.0 443.0 L 889.0 444.0 L 889.0 495.0 L 890.0 496.0 L 890.0 504.0 L 891.0 504.0 L 891.0 502.0 L 892.0 501.0 L 892.0 439.0 L 891.0 438.0 L 891.0 434.0 Z M 367.0 434.0 L 365.0 434.0 L 365.0 451.0 L 364.0 452.0 L 364.0 488.0 L 365.0 489.0 L 365.0 504.0 L 366.0 504.0 L 367.0 503.0 Z M 866.0 419.0 L 866.0 469.0 L 868.0 469.0 L 868.0 419.0 Z M 457.0 419.0 L 457.0 432.0 L 458.0 432.0 L 458.0 419.0 Z M 389.0 419.0 L 389.0 469.0 L 390.0 469.0 L 391.0 468.0 L 391.0 421.0 L 390.0 420.0 L 390.0 419.0 Z M 555.0 417.0 L 556.0 418.0 L 556.0 456.0 L 554.0 458.0 L 553.0 457.0 L 553.0 421.0 L 554.0 420.0 L 554.0 418.0 Z M 409.0 418.0 L 409.0 425.0 L 408.0 426.0 L 408.0 457.0 L 409.0 458.0 L 409.0 460.0 L 410.0 460.0 L 410.0 457.0 L 411.0 456.0 L 411.0 431.0 L 410.0 430.0 L 410.0 418.0 Z M 700.0 416.0 L 701.0 417.0 L 701.0 459.0 L 700.0 460.0 L 699.0 459.0 L 699.0 417.0 Z M 527.0 416.0 L 528.0 417.0 L 528.0 482.0 L 526.0 485.0 L 525.0 484.0 L 525.0 470.0 L 524.0 469.0 L 524.0 468.0 L 525.0 467.0 L 525.0 417.0 L 526.0 416.0 Z M 848.0 415.0 L 848.0 417.0 L 847.0 418.0 L 847.0 458.0 L 848.0 459.0 L 848.0 460.0 L 849.0 460.0 L 849.0 457.0 L 850.0 456.0 L 850.0 442.0 L 849.0 441.0 L 849.0 415.0 Z M 832.0 415.0 L 832.0 542.0 L 833.0 542.0 L 833.0 540.0 L 834.0 539.0 L 834.0 422.0 L 833.0 421.0 L 833.0 415.0 Z M 427.0 415.0 L 426.0 415.0 L 425.0 416.0 L 425.0 539.0 L 426.0 539.0 L 426.0 538.0 L 427.0 537.0 Z M 814.0 414.0 L 814.0 446.0 L 816.0 446.0 L 816.0 414.0 Z M 729.0 413.0 L 730.0 414.0 L 730.0 428.0 L 731.0 429.0 L 731.0 488.0 L 730.0 489.0 L 727.0 486.0 L 727.0 439.0 L 728.0 438.0 L 728.0 414.0 Z M 442.0 414.0 L 442.0 446.0 L 443.0 446.0 L 443.0 442.0 L 444.0 441.0 L 444.0 419.0 L 443.0 418.0 L 443.0 414.0 Z M 714.0 407.0 L 715.0 408.0 L 715.0 473.0 L 714.0 474.0 L 712.0 472.0 L 712.0 409.0 Z M 627.0 402.0 L 628.0 403.0 L 628.0 416.0 L 629.0 417.0 L 628.0 426.0 L 631.0 433.0 L 631.0 444.0 L 632.0 445.0 L 631.0 449.0 L 596.0 490.0 L 588.0 501.0 L 583.0 506.0 L 581.0 505.0 L 578.0 512.0 L 531.0 566.0 L 531.0 567.0 L 534.0 568.0 L 525.0 579.0 L 523.0 576.0 L 519.0 574.0 L 519.0 572.0 L 517.0 572.0 L 511.0 566.0 L 511.0 569.0 L 505.0 583.0 L 495.0 592.0 L 491.0 593.0 L 468.0 613.0 L 466.0 611.0 L 468.0 613.0 L 463.0 618.0 L 454.0 624.0 L 453.0 622.0 L 489.0 580.0 L 497.0 569.0 L 507.0 560.0 L 509.0 560.0 L 511.0 558.0 L 517.0 545.0 L 545.0 497.0 L 547.0 496.0 L 554.0 504.0 L 565.0 487.0 L 571.0 481.0 L 586.0 448.0 L 588.0 446.0 L 590.0 447.0 L 596.0 447.0 L 611.0 424.0 Z M 652.0 397.0 L 653.0 396.0 L 654.0 397.0 L 654.0 398.0 L 653.0 399.0 L 652.0 398.0 Z M 687.0 395.0 L 688.0 396.0 L 688.0 443.0 L 687.0 444.0 L 686.0 443.0 L 686.0 396.0 Z M 743.0 394.0 L 744.0 395.0 L 744.0 398.0 L 745.0 399.0 L 745.0 511.0 L 744.0 512.0 L 743.0 511.0 L 743.0 509.0 L 742.0 508.0 L 742.0 451.0 L 741.0 450.0 L 741.0 443.0 L 742.0 442.0 L 742.0 395.0 Z M 414.0 393.0 L 415.0 392.0 L 416.0 393.0 L 416.0 394.0 L 415.0 395.0 L 414.0 394.0 Z M 513.0 390.0 L 514.0 391.0 L 514.0 444.0 L 515.0 445.0 L 515.0 460.0 L 514.0 461.0 L 514.0 506.0 L 513.0 507.0 L 513.0 509.0 L 512.0 510.0 L 511.0 509.0 L 511.0 484.0 L 510.0 483.0 L 510.0 442.0 L 511.0 441.0 L 511.0 396.0 L 512.0 395.0 L 512.0 391.0 Z M 415.0 391.0 L 416.0 390.0 L 417.0 391.0 L 417.0 392.0 L 416.0 393.0 L 415.0 392.0 Z M 416.0 389.0 L 417.0 388.0 L 418.0 389.0 L 418.0 390.0 L 417.0 391.0 L 416.0 390.0 Z M 568.0 387.0 L 569.0 388.0 L 569.0 437.0 L 567.0 439.0 L 566.0 438.0 L 566.0 414.0 L 567.0 413.0 L 567.0 388.0 Z M 672.0 386.0 L 673.0 387.0 L 673.0 423.0 L 672.0 424.0 L 671.0 423.0 L 671.0 421.0 L 670.0 420.0 L 670.0 413.0 L 671.0 412.0 L 671.0 387.0 Z M 417.0 387.0 L 418.0 386.0 L 419.0 387.0 L 419.0 388.0 L 418.0 389.0 L 417.0 388.0 Z M 652.0 384.0 L 653.0 385.0 L 653.0 392.0 L 654.0 393.0 L 652.0 396.0 L 651.0 395.0 L 651.0 385.0 Z M 591.0 384.0 L 592.0 385.0 L 592.0 411.0 L 591.0 412.0 L 590.0 411.0 L 590.0 385.0 Z M 541.0 384.0 L 543.0 386.0 L 543.0 461.0 L 542.0 462.0 L 542.0 464.0 L 541.0 465.0 L 540.0 464.0 L 540.0 385.0 Z M 821.0 375.0 L 822.0 374.0 L 824.0 374.0 L 825.0 375.0 L 824.0 376.0 L 822.0 376.0 Z M 800.0 374.0 L 801.0 373.0 L 803.0 373.0 L 804.0 374.0 L 803.0 375.0 L 801.0 375.0 Z M 804.0 373.0 L 805.0 372.0 L 817.0 372.0 L 818.0 373.0 L 821.0 373.0 L 822.0 374.0 L 821.0 375.0 L 817.0 375.0 L 816.0 374.0 L 805.0 374.0 Z M 455.0 374.0 L 454.0 375.0 L 451.0 375.0 L 450.0 374.0 L 446.0 374.0 L 445.0 375.0 L 440.0 375.0 L 439.0 376.0 L 437.0 376.0 L 437.0 377.0 L 444.0 377.0 L 445.0 378.0 L 444.0 379.0 L 435.0 379.0 L 434.0 378.0 L 432.0 378.0 L 428.0 381.0 L 427.0 381.0 L 423.0 385.0 L 423.0 386.0 L 421.0 388.0 L 418.0 386.0 L 419.0 385.0 L 419.0 384.0 L 426.0 377.0 L 429.0 376.0 L 431.0 374.0 L 433.0 374.0 L 434.0 373.0 L 436.0 373.0 L 437.0 372.0 L 451.0 372.0 L 452.0 373.0 L 454.0 373.0 Z M 202.0 361.0 L 212.0 366.0 L 214.0 368.0 L 217.0 369.0 L 219.0 371.0 L 219.0 372.0 L 218.0 373.0 L 206.0 373.0 L 200.0 376.0 L 193.0 383.0 L 190.0 389.0 L 190.0 392.0 L 189.0 393.0 L 189.0 404.0 L 190.0 405.0 L 190.0 407.0 L 193.0 413.0 L 196.0 416.0 L 196.0 417.0 L 201.0 422.0 L 202.0 422.0 L 207.0 426.0 L 213.0 429.0 L 215.0 429.0 L 219.0 431.0 L 224.0 431.0 L 225.0 432.0 L 230.0 432.0 L 231.0 431.0 L 235.0 431.0 L 236.0 430.0 L 241.0 429.0 L 249.0 423.0 L 249.0 422.0 L 253.0 417.0 L 254.0 413.0 L 255.0 412.0 L 255.0 409.0 L 256.0 408.0 L 256.0 401.0 L 255.0 400.0 L 255.0 397.0 L 254.0 396.0 L 254.0 394.0 L 252.0 392.0 L 251.0 389.0 L 253.0 387.0 L 257.0 391.0 L 263.0 394.0 L 266.0 397.0 L 265.0 398.0 L 265.0 401.0 L 263.0 405.0 L 262.0 412.0 L 258.0 420.0 L 258.0 422.0 L 256.0 424.0 L 253.0 430.0 L 244.0 439.0 L 241.0 440.0 L 239.0 442.0 L 237.0 442.0 L 234.0 444.0 L 227.0 445.0 L 226.0 446.0 L 218.0 446.0 L 217.0 445.0 L 213.0 445.0 L 212.0 444.0 L 209.0 444.0 L 206.0 442.0 L 202.0 441.0 L 200.0 439.0 L 196.0 437.0 L 187.0 428.0 L 187.0 427.0 L 185.0 425.0 L 183.0 421.0 L 183.0 419.0 L 181.0 415.0 L 181.0 411.0 L 180.0 410.0 L 180.0 399.0 L 181.0 398.0 L 181.0 394.0 L 182.0 393.0 L 182.0 390.0 L 184.0 387.0 L 185.0 383.0 L 187.0 381.0 L 189.0 377.0 L 200.0 365.0 L 200.0 363.0 Z M 737.0 359.0 L 738.0 358.0 L 739.0 359.0 L 739.0 360.0 L 738.0 361.0 L 737.0 360.0 Z M 465.0 354.0 L 466.0 353.0 L 477.0 353.0 L 478.0 354.0 L 477.0 355.0 L 466.0 355.0 Z M 1050.0 352.0 L 1059.0 369.0 L 1054.0 379.0 L 1054.0 381.0 L 1052.0 384.0 L 1048.0 396.0 L 1045.0 401.0 L 1041.0 413.0 L 1038.0 418.0 L 1036.0 425.0 L 1033.0 430.0 L 1032.0 435.0 L 1070.0 415.0 L 1074.0 411.0 L 1074.0 406.0 L 1073.0 404.0 L 1075.0 402.0 L 1077.0 403.0 L 1077.0 405.0 L 1083.0 416.0 L 1083.0 418.0 L 1086.0 424.0 L 1084.0 426.0 L 1080.0 421.0 L 1074.0 421.0 L 1013.0 452.0 L 1012.0 451.0 L 1012.0 447.0 L 1019.0 432.0 L 1020.0 427.0 L 1025.0 417.0 L 1030.0 402.0 L 1042.0 374.0 L 1037.0 376.0 L 1035.0 378.0 L 1030.0 380.0 L 1028.0 382.0 L 1021.0 385.0 L 1014.0 390.0 L 999.0 398.0 L 995.0 402.0 L 995.0 408.0 L 996.0 409.0 L 994.0 411.0 L 991.0 409.0 L 982.0 391.0 L 984.0 390.0 L 988.0 393.0 L 994.0 392.0 L 998.0 389.0 L 1011.0 383.0 L 1029.0 372.0 L 1045.0 364.0 L 1048.0 359.0 L 1048.0 355.0 L 1047.0 354.0 Z M 468.0 350.0 L 469.0 349.0 L 476.0 349.0 L 477.0 350.0 L 476.0 351.0 L 469.0 351.0 Z M 759.0 345.0 L 760.0 344.0 L 766.0 344.0 L 767.0 345.0 L 766.0 346.0 L 760.0 346.0 Z M 478.0 345.0 L 479.0 344.0 L 481.0 344.0 L 482.0 345.0 L 481.0 346.0 L 479.0 346.0 Z M 783.0 343.0 L 784.0 342.0 L 785.0 342.0 L 786.0 343.0 L 785.0 344.0 L 784.0 344.0 Z M 784.0 342.0 L 783.0 343.0 L 780.0 343.0 L 779.0 342.0 L 764.0 342.0 L 763.0 343.0 L 760.0 343.0 L 759.0 344.0 L 754.0 346.0 L 752.0 348.0 L 751.0 348.0 L 744.0 355.0 L 741.0 353.0 L 742.0 352.0 L 742.0 351.0 L 748.0 345.0 L 749.0 345.0 L 751.0 343.0 L 752.0 343.0 L 757.0 340.0 L 759.0 340.0 L 760.0 339.0 L 764.0 339.0 L 765.0 338.0 L 771.0 338.0 L 772.0 339.0 L 777.0 339.0 L 778.0 340.0 L 781.0 340.0 Z M 500.0 342.0 L 499.0 343.0 L 497.0 343.0 L 496.0 342.0 L 481.0 342.0 L 480.0 343.0 L 478.0 343.0 L 477.0 344.0 L 476.0 344.0 L 476.0 345.0 L 478.0 345.0 L 479.0 346.0 L 478.0 347.0 L 470.0 347.0 L 469.0 348.0 L 469.0 349.0 L 468.0 350.0 L 467.0 350.0 L 461.0 357.0 L 461.0 358.0 L 460.0 359.0 L 460.0 361.0 L 458.0 364.0 L 458.0 374.0 L 459.0 375.0 L 458.0 376.0 L 457.0 376.0 L 456.0 375.0 L 456.0 373.0 L 454.0 371.0 L 454.0 362.0 L 455.0 361.0 L 455.0 359.0 L 456.0 358.0 L 458.0 353.0 L 460.0 351.0 L 460.0 350.0 L 465.0 345.0 L 466.0 345.0 L 468.0 343.0 L 469.0 343.0 L 474.0 340.0 L 476.0 340.0 L 477.0 339.0 L 481.0 339.0 L 482.0 338.0 L 490.0 338.0 L 491.0 339.0 L 495.0 339.0 Z M 694.0 327.0 L 695.0 326.0 L 697.0 326.0 L 698.0 327.0 L 697.0 328.0 L 695.0 328.0 Z M 693.0 324.0 L 694.0 323.0 L 695.0 323.0 L 696.0 324.0 L 695.0 325.0 L 694.0 325.0 Z M 530.0 324.0 L 531.0 323.0 L 532.0 323.0 L 533.0 324.0 L 532.0 325.0 L 531.0 325.0 Z M 695.0 323.0 L 696.0 322.0 L 703.0 322.0 L 704.0 323.0 L 703.0 324.0 L 696.0 324.0 Z M 702.0 319.0 L 703.0 318.0 L 710.0 318.0 L 711.0 319.0 L 710.0 320.0 L 703.0 320.0 Z M 532.0 319.0 L 533.0 318.0 L 541.0 318.0 L 542.0 319.0 L 541.0 320.0 L 533.0 320.0 Z M 730.0 318.0 L 731.0 317.0 L 732.0 317.0 L 733.0 318.0 L 732.0 319.0 L 731.0 319.0 Z M 728.0 317.0 L 729.0 316.0 L 730.0 316.0 L 731.0 317.0 L 730.0 318.0 L 729.0 318.0 Z M 555.0 316.0 L 556.0 315.0 L 557.0 315.0 L 558.0 316.0 L 557.0 317.0 L 556.0 317.0 Z M 729.0 316.0 L 728.0 317.0 L 725.0 317.0 L 724.0 316.0 L 705.0 316.0 L 704.0 317.0 L 702.0 317.0 L 701.0 318.0 L 698.0 319.0 L 696.0 321.0 L 693.0 322.0 L 690.0 325.0 L 689.0 325.0 L 683.0 333.0 L 680.0 331.0 L 683.0 327.0 L 683.0 326.0 L 691.0 318.0 L 692.0 318.0 L 694.0 316.0 L 695.0 316.0 L 700.0 313.0 L 702.0 313.0 L 703.0 312.0 L 707.0 312.0 L 708.0 311.0 L 717.0 311.0 L 718.0 312.0 L 721.0 312.0 L 722.0 313.0 L 724.0 313.0 Z M 556.0 315.0 L 555.0 316.0 L 535.0 316.0 L 534.0 317.0 L 532.0 317.0 L 531.0 318.0 L 530.0 318.0 L 528.0 320.0 L 525.0 321.0 L 522.0 324.0 L 521.0 324.0 L 515.0 332.0 L 515.0 334.0 L 513.0 337.0 L 513.0 351.0 L 512.0 352.0 L 511.0 351.0 L 511.0 350.0 L 509.0 347.0 L 510.0 346.0 L 510.0 345.0 L 509.0 345.0 L 508.0 344.0 L 508.0 338.0 L 509.0 337.0 L 509.0 334.0 L 511.0 331.0 L 511.0 329.0 L 513.0 327.0 L 513.0 326.0 L 515.0 324.0 L 515.0 323.0 L 520.0 318.0 L 521.0 318.0 L 523.0 316.0 L 524.0 316.0 L 529.0 313.0 L 531.0 313.0 L 532.0 312.0 L 536.0 312.0 L 537.0 311.0 L 544.0 311.0 L 545.0 312.0 L 549.0 312.0 L 550.0 313.0 L 552.0 313.0 L 553.0 314.0 L 555.0 314.0 Z M 257.0 311.0 L 257.0 312.0 L 258.0 313.0 L 261.0 320.0 L 263.0 322.0 L 263.0 323.0 L 264.0 324.0 L 265.0 327.0 L 267.0 329.0 L 269.0 334.0 L 271.0 336.0 L 272.0 339.0 L 273.0 340.0 L 274.0 340.0 L 276.0 338.0 L 276.0 337.0 L 281.0 332.0 L 281.0 331.0 L 286.0 326.0 L 286.0 325.0 L 288.0 323.0 L 288.0 322.0 L 286.0 322.0 L 283.0 320.0 L 278.0 319.0 L 275.0 317.0 L 273.0 317.0 L 270.0 315.0 L 265.0 314.0 L 262.0 312.0 Z M 247.0 294.0 L 249.0 294.0 L 250.0 295.0 L 252.0 295.0 L 255.0 297.0 L 257.0 297.0 L 258.0 298.0 L 263.0 299.0 L 264.0 300.0 L 265.0 300.0 L 266.0 301.0 L 268.0 301.0 L 271.0 303.0 L 273.0 303.0 L 274.0 304.0 L 279.0 305.0 L 282.0 307.0 L 284.0 307.0 L 285.0 308.0 L 290.0 309.0 L 293.0 311.0 L 298.0 312.0 L 301.0 314.0 L 306.0 315.0 L 309.0 317.0 L 311.0 317.0 L 312.0 318.0 L 314.0 318.0 L 315.0 319.0 L 317.0 319.0 L 318.0 320.0 L 323.0 320.0 L 328.0 317.0 L 330.0 319.0 L 330.0 320.0 L 322.0 328.0 L 322.0 329.0 L 312.0 340.0 L 311.0 340.0 L 310.0 339.0 L 310.0 337.0 L 311.0 336.0 L 311.0 332.0 L 309.0 330.0 L 304.0 329.0 L 301.0 327.0 L 299.0 327.0 L 298.0 326.0 L 295.0 325.0 L 293.0 327.0 L 293.0 328.0 L 288.0 333.0 L 288.0 334.0 L 277.0 346.0 L 277.0 348.0 L 278.0 349.0 L 279.0 352.0 L 281.0 354.0 L 281.0 355.0 L 283.0 357.0 L 283.0 358.0 L 287.0 362.0 L 289.0 362.0 L 293.0 359.0 L 294.0 359.0 L 295.0 360.0 L 294.0 363.0 L 289.0 368.0 L 289.0 369.0 L 287.0 371.0 L 287.0 372.0 L 281.0 379.0 L 280.0 379.0 L 279.0 378.0 L 279.0 376.0 L 280.0 375.0 L 280.0 373.0 L 281.0 372.0 L 281.0 371.0 L 280.0 370.0 L 280.0 368.0 L 279.0 367.0 L 276.0 360.0 L 274.0 358.0 L 271.0 351.0 L 269.0 349.0 L 266.0 342.0 L 264.0 340.0 L 264.0 339.0 L 263.0 338.0 L 259.0 329.0 L 257.0 327.0 L 253.0 318.0 L 251.0 316.0 L 247.0 307.0 L 245.0 305.0 L 245.0 304.0 L 243.0 301.0 L 243.0 298.0 Z M 995.0 288.0 L 993.0 288.0 L 992.0 287.0 L 990.0 287.0 L 989.0 286.0 L 980.0 286.0 L 979.0 287.0 L 976.0 287.0 L 975.0 288.0 L 973.0 288.0 L 972.0 289.0 L 967.0 291.0 L 961.0 296.0 L 960.0 296.0 L 954.0 302.0 L 954.0 303.0 L 951.0 306.0 L 951.0 307.0 L 949.0 309.0 L 949.0 310.0 L 948.0 311.0 L 948.0 313.0 L 946.0 316.0 L 946.0 319.0 L 945.0 320.0 L 945.0 329.0 L 946.0 330.0 L 946.0 333.0 L 947.0 334.0 L 948.0 337.0 L 950.0 339.0 L 950.0 340.0 L 955.0 345.0 L 956.0 345.0 L 961.0 348.0 L 964.0 348.0 L 965.0 349.0 L 973.0 349.0 L 974.0 348.0 L 977.0 348.0 L 980.0 346.0 L 982.0 346.0 L 983.0 345.0 L 986.0 344.0 L 992.0 339.0 L 993.0 339.0 L 1000.0 332.0 L 1000.0 331.0 L 1003.0 328.0 L 1003.0 327.0 L 1007.0 320.0 L 1007.0 318.0 L 1008.0 317.0 L 1008.0 305.0 L 1007.0 304.0 L 1007.0 302.0 L 1006.0 301.0 L 1004.0 296.0 L 998.0 290.0 L 997.0 290.0 Z M 972.0 275.0 L 981.0 275.0 L 982.0 276.0 L 987.0 276.0 L 988.0 277.0 L 990.0 277.0 L 991.0 278.0 L 996.0 280.0 L 1002.0 285.0 L 1003.0 285.0 L 1008.0 290.0 L 1008.0 291.0 L 1011.0 294.0 L 1011.0 295.0 L 1016.0 304.0 L 1016.0 306.0 L 1017.0 307.0 L 1017.0 310.0 L 1018.0 311.0 L 1018.0 325.0 L 1017.0 326.0 L 1017.0 329.0 L 1016.0 330.0 L 1016.0 332.0 L 1015.0 333.0 L 1012.0 340.0 L 1009.0 343.0 L 1009.0 344.0 L 1002.0 351.0 L 1001.0 351.0 L 999.0 353.0 L 998.0 353.0 L 996.0 355.0 L 995.0 355.0 L 992.0 357.0 L 990.0 357.0 L 989.0 358.0 L 987.0 358.0 L 986.0 359.0 L 983.0 359.0 L 982.0 360.0 L 971.0 360.0 L 970.0 359.0 L 967.0 359.0 L 966.0 358.0 L 964.0 358.0 L 961.0 356.0 L 959.0 356.0 L 957.0 354.0 L 956.0 354.0 L 954.0 352.0 L 953.0 352.0 L 944.0 343.0 L 944.0 342.0 L 940.0 337.0 L 940.0 336.0 L 938.0 333.0 L 937.0 328.0 L 936.0 327.0 L 936.0 324.0 L 935.0 323.0 L 935.0 309.0 L 936.0 308.0 L 936.0 306.0 L 937.0 305.0 L 938.0 300.0 L 941.0 296.0 L 941.0 295.0 L 944.0 292.0 L 944.0 291.0 L 950.0 285.0 L 951.0 285.0 L 957.0 280.0 L 958.0 280.0 L 961.0 278.0 L 963.0 278.0 L 964.0 277.0 L 966.0 277.0 L 967.0 276.0 L 971.0 276.0 Z M 639.0 272.0 L 638.0 273.0 L 626.0 273.0 L 624.0 275.0 L 616.0 275.0 L 615.0 276.0 L 612.0 276.0 L 611.0 277.0 L 608.0 277.0 L 607.0 278.0 L 605.0 278.0 L 602.0 280.0 L 600.0 280.0 L 599.0 281.0 L 594.0 283.0 L 592.0 285.0 L 589.0 286.0 L 584.0 291.0 L 583.0 291.0 L 581.0 293.0 L 581.0 294.0 L 580.0 295.0 L 579.0 295.0 L 579.0 296.0 L 575.0 300.0 L 575.0 301.0 L 573.0 303.0 L 573.0 304.0 L 569.0 311.0 L 569.0 313.0 L 568.0 314.0 L 568.0 316.0 L 567.0 317.0 L 567.0 320.0 L 566.0 321.0 L 566.0 323.0 L 565.0 324.0 L 564.0 323.0 L 564.0 321.0 L 563.0 320.0 L 563.0 313.0 L 564.0 312.0 L 565.0 307.0 L 566.0 306.0 L 568.0 301.0 L 573.0 295.0 L 573.0 294.0 L 582.0 285.0 L 583.0 285.0 L 586.0 282.0 L 589.0 281.0 L 591.0 279.0 L 592.0 279.0 L 597.0 276.0 L 599.0 276.0 L 600.0 275.0 L 602.0 275.0 L 603.0 274.0 L 605.0 274.0 L 606.0 273.0 L 608.0 273.0 L 609.0 272.0 L 614.0 272.0 L 615.0 271.0 L 624.0 271.0 L 625.0 270.0 L 631.0 270.0 L 632.0 271.0 L 638.0 271.0 Z M 380.0 404.0 L 455.0 405.0 L 457.0 410.0 L 459.0 410.0 L 461.0 405.0 L 466.0 405.0 L 469.0 454.0 L 473.0 406.0 L 477.0 406.0 L 481.0 471.0 L 481.0 530.0 L 483.0 443.0 L 486.0 406.0 L 489.0 405.0 L 492.0 470.0 L 492.0 541.0 L 494.0 541.0 L 494.0 494.0 L 499.0 405.0 L 501.0 405.0 L 504.0 538.0 L 529.0 492.0 L 544.0 475.0 L 549.0 478.0 L 556.0 467.0 L 561.0 467.0 L 575.0 438.0 L 582.0 431.0 L 590.0 429.0 L 628.0 378.0 L 667.0 432.0 L 676.0 439.0 L 687.0 465.0 L 693.0 464.0 L 698.0 469.0 L 714.0 499.0 L 721.0 493.0 L 730.0 499.0 L 752.0 542.0 L 754.0 409.0 L 756.0 409.0 L 762.0 542.0 L 766.0 406.0 L 768.0 406.0 L 772.0 484.0 L 774.0 484.0 L 774.0 449.0 L 778.0 405.0 L 780.0 406.0 L 784.0 451.0 L 788.0 405.0 L 792.0 406.0 L 794.0 434.0 L 798.0 405.0 L 803.0 406.0 L 805.0 423.0 L 808.0 405.0 L 875.0 405.0 L 863.0 396.0 L 852.0 394.0 L 847.0 383.0 L 837.0 371.0 L 827.0 365.0 L 811.0 362.0 L 804.0 346.0 L 791.0 334.0 L 772.0 328.0 L 755.0 331.0 L 748.0 318.0 L 739.0 309.0 L 724.0 302.0 L 706.0 301.0 L 697.0 304.0 L 690.0 291.0 L 676.0 276.0 L 657.0 265.0 L 639.0 260.0 L 616.0 260.0 L 594.0 266.0 L 575.0 277.0 L 563.0 290.0 L 556.0 303.0 L 536.0 301.0 L 524.0 304.0 L 508.0 316.0 L 500.0 331.0 L 483.0 328.0 L 464.0 334.0 L 451.0 346.0 L 444.0 362.0 L 426.0 366.0 L 411.0 379.0 L 404.0 394.0 L 392.0 396.0 Z M 266.0 515.0 L 289.0 454.0 L 306.0 422.0 L 331.0 385.0 L 351.0 361.0 L 381.0 331.0 L 408.0 309.0 L 446.0 284.0 L 505.0 257.0 L 533.0 248.0 L 577.0 239.0 L 625.0 235.0 L 657.0 236.0 L 694.0 241.0 L 725.0 248.0 L 761.0 260.0 L 796.0 276.0 L 824.0 292.0 L 854.0 313.0 L 873.0 329.0 L 912.0 369.0 L 940.0 407.0 L 954.0 430.0 L 981.0 488.0 L 993.0 529.0 L 1000.0 565.0 L 1003.0 595.0 L 1003.0 642.0 L 1000.0 672.0 L 991.0 717.0 L 988.0 723.0 L 897.0 639.0 L 868.0 596.0 L 856.0 597.0 L 831.0 560.0 L 798.0 522.0 L 774.0 544.0 L 756.0 565.0 L 725.0 505.0 L 722.0 503.0 L 712.0 509.0 L 693.0 474.0 L 682.0 472.0 L 670.0 443.0 L 663.0 438.0 L 628.0 389.0 L 593.0 437.0 L 582.0 440.0 L 566.0 472.0 L 558.0 476.0 L 551.0 488.0 L 546.0 484.0 L 534.0 498.0 L 503.0 552.0 L 495.0 559.0 L 456.0 522.0 L 425.0 557.0 L 405.0 591.0 L 398.0 589.0 L 355.0 644.0 L 266.0 723.0 L 257.0 690.0 L 251.0 633.0 L 254.0 574.0 Z M 932.0 217.0 L 936.0 221.0 L 937.0 221.0 L 943.0 227.0 L 944.0 227.0 L 948.0 231.0 L 949.0 231.0 L 953.0 235.0 L 953.0 236.0 L 951.0 238.0 L 949.0 236.0 L 943.0 236.0 L 936.0 244.0 L 936.0 245.0 L 932.0 249.0 L 932.0 250.0 L 928.0 254.0 L 928.0 255.0 L 924.0 259.0 L 924.0 260.0 L 920.0 264.0 L 920.0 265.0 L 916.0 269.0 L 916.0 270.0 L 911.0 275.0 L 911.0 276.0 L 907.0 280.0 L 907.0 281.0 L 902.0 286.0 L 902.0 287.0 L 901.0 288.0 L 901.0 290.0 L 902.0 291.0 L 903.0 294.0 L 904.0 294.0 L 905.0 295.0 L 903.0 298.0 L 901.0 296.0 L 900.0 296.0 L 892.0 288.0 L 891.0 288.0 L 881.0 279.0 L 883.0 277.0 L 884.0 277.0 L 886.0 279.0 L 890.0 279.0 L 891.0 278.0 L 892.0 278.0 L 894.0 276.0 L 894.0 275.0 L 899.0 270.0 L 899.0 269.0 L 903.0 265.0 L 903.0 264.0 L 906.0 261.0 L 906.0 260.0 L 911.0 255.0 L 911.0 254.0 L 919.0 245.0 L 919.0 244.0 L 922.0 241.0 L 922.0 240.0 L 931.0 230.0 L 931.0 229.0 L 932.0 228.0 L 932.0 223.0 L 929.0 219.0 L 931.0 217.0 Z M 368.0 317.0 L 403.0 289.0 L 429.0 272.0 L 471.0 250.0 L 504.0 237.0 L 572.0 220.0 L 613.0 216.0 L 663.0 217.0 L 699.0 222.0 L 737.0 231.0 L 776.0 245.0 L 808.0 260.0 L 840.0 279.0 L 869.0 300.0 L 892.0 320.0 L 920.0 349.0 L 947.0 383.0 L 964.0 409.0 L 985.0 448.0 L 996.0 474.0 L 1008.0 510.0 L 1017.0 549.0 L 1021.0 577.0 L 1023.0 622.0 L 1021.0 659.0 L 1015.0 699.0 L 1008.0 729.0 L 993.0 773.0 L 973.0 815.0 L 950.0 852.0 L 931.0 877.0 L 903.0 907.0 L 897.0 911.0 L 891.0 906.0 L 920.0 876.0 L 943.0 846.0 L 962.0 816.0 L 978.0 784.0 L 995.0 740.0 L 1008.0 686.0 L 1013.0 643.0 L 1012.0 580.0 L 1004.0 531.0 L 988.0 478.0 L 966.0 430.0 L 930.0 375.0 L 910.0 351.0 L 880.0 321.0 L 849.0 296.0 L 811.0 272.0 L 756.0 247.0 L 712.0 234.0 L 646.0 225.0 L 589.0 227.0 L 531.0 238.0 L 475.0 258.0 L 428.0 283.0 L 385.0 314.0 L 339.0 359.0 L 307.0 401.0 L 278.0 453.0 L 260.0 499.0 L 245.0 563.0 L 241.0 606.0 L 244.0 673.0 L 257.0 733.0 L 271.0 772.0 L 285.0 802.0 L 315.0 851.0 L 333.0 874.0 L 363.0 906.0 L 357.0 911.0 L 335.0 890.0 L 306.0 854.0 L 289.0 828.0 L 267.0 786.0 L 254.0 754.0 L 236.0 683.0 L 232.0 646.0 L 232.0 600.0 L 234.0 575.0 L 242.0 530.0 L 250.0 500.0 L 267.0 455.0 L 283.0 423.0 L 310.0 381.0 L 335.0 350.0 Z M 335.0 212.0 L 342.0 220.0 L 342.0 221.0 L 348.0 227.0 L 345.0 230.0 L 337.0 225.0 L 327.0 225.0 L 323.0 228.0 L 322.0 228.0 L 317.0 234.0 L 317.0 237.0 L 316.0 238.0 L 316.0 241.0 L 319.0 247.0 L 323.0 250.0 L 336.0 250.0 L 337.0 249.0 L 340.0 249.0 L 341.0 248.0 L 345.0 248.0 L 346.0 247.0 L 351.0 247.0 L 352.0 246.0 L 359.0 246.0 L 360.0 247.0 L 363.0 247.0 L 367.0 249.0 L 375.0 257.0 L 377.0 261.0 L 377.0 264.0 L 378.0 265.0 L 378.0 272.0 L 377.0 273.0 L 377.0 276.0 L 374.0 282.0 L 364.0 292.0 L 346.0 301.0 L 344.0 300.0 L 344.0 299.0 L 333.0 287.0 L 333.0 286.0 L 335.0 284.0 L 336.0 284.0 L 338.0 286.0 L 342.0 288.0 L 344.0 288.0 L 345.0 289.0 L 355.0 289.0 L 356.0 288.0 L 358.0 288.0 L 362.0 286.0 L 366.0 282.0 L 368.0 278.0 L 368.0 276.0 L 369.0 275.0 L 369.0 273.0 L 368.0 272.0 L 368.0 269.0 L 367.0 267.0 L 363.0 263.0 L 359.0 261.0 L 349.0 261.0 L 348.0 262.0 L 345.0 262.0 L 344.0 263.0 L 340.0 263.0 L 339.0 264.0 L 336.0 264.0 L 335.0 265.0 L 325.0 265.0 L 324.0 264.0 L 321.0 264.0 L 317.0 261.0 L 316.0 261.0 L 311.0 256.0 L 308.0 250.0 L 308.0 246.0 L 307.0 245.0 L 307.0 241.0 L 308.0 240.0 L 308.0 237.0 L 312.0 229.0 L 321.0 221.0 L 331.0 216.0 Z M 408.0 186.0 L 408.0 189.0 L 409.0 190.0 L 409.0 197.0 L 410.0 198.0 L 410.0 206.0 L 411.0 207.0 L 411.0 216.0 L 412.0 217.0 L 412.0 220.0 L 413.0 220.0 L 414.0 219.0 L 415.0 219.0 L 416.0 218.0 L 417.0 218.0 L 418.0 217.0 L 419.0 217.0 L 420.0 216.0 L 421.0 216.0 L 422.0 215.0 L 429.0 212.0 L 431.0 210.0 L 432.0 210.0 L 432.0 208.0 L 427.0 203.0 L 426.0 203.0 L 409.0 186.0 Z M 855.0 167.0 L 859.0 170.0 L 864.0 172.0 L 866.0 174.0 L 871.0 176.0 L 873.0 178.0 L 878.0 180.0 L 880.0 182.0 L 878.0 184.0 L 877.0 184.0 L 876.0 183.0 L 871.0 183.0 L 868.0 186.0 L 868.0 187.0 L 866.0 189.0 L 864.0 194.0 L 862.0 196.0 L 859.0 203.0 L 857.0 205.0 L 856.0 208.0 L 854.0 210.0 L 852.0 215.0 L 850.0 217.0 L 849.0 220.0 L 847.0 222.0 L 845.0 227.0 L 843.0 229.0 L 841.0 234.0 L 839.0 236.0 L 839.0 237.0 L 837.0 240.0 L 837.0 241.0 L 841.0 244.0 L 844.0 245.0 L 846.0 247.0 L 849.0 248.0 L 851.0 250.0 L 852.0 250.0 L 855.0 252.0 L 857.0 252.0 L 858.0 253.0 L 862.0 253.0 L 863.0 252.0 L 864.0 252.0 L 865.0 251.0 L 872.0 248.0 L 874.0 250.0 L 869.0 255.0 L 869.0 256.0 L 864.0 261.0 L 864.0 262.0 L 862.0 264.0 L 859.0 263.0 L 854.0 259.0 L 851.0 258.0 L 849.0 256.0 L 846.0 255.0 L 841.0 251.0 L 836.0 249.0 L 834.0 247.0 L 831.0 246.0 L 829.0 244.0 L 828.0 244.0 L 827.0 243.0 L 826.0 243.0 L 825.0 242.0 L 818.0 239.0 L 815.0 236.0 L 815.0 235.0 L 816.0 234.0 L 818.0 234.0 L 819.0 235.0 L 822.0 235.0 L 823.0 234.0 L 826.0 233.0 L 827.0 230.0 L 829.0 228.0 L 831.0 223.0 L 833.0 221.0 L 833.0 220.0 L 834.0 219.0 L 835.0 216.0 L 837.0 214.0 L 839.0 209.0 L 841.0 207.0 L 842.0 204.0 L 844.0 202.0 L 846.0 197.0 L 848.0 195.0 L 850.0 190.0 L 852.0 188.0 L 852.0 187.0 L 857.0 178.0 L 857.0 173.0 L 853.0 169.0 Z M 406.0 167.0 L 428.0 188.0 L 429.0 188.0 L 444.0 203.0 L 445.0 203.0 L 458.0 216.0 L 459.0 216.0 L 463.0 220.0 L 464.0 220.0 L 465.0 221.0 L 471.0 221.0 L 473.0 223.0 L 471.0 225.0 L 470.0 225.0 L 463.0 229.0 L 461.0 229.0 L 459.0 231.0 L 458.0 231.0 L 449.0 236.0 L 448.0 236.0 L 446.0 233.0 L 450.0 230.0 L 450.0 226.0 L 442.0 218.0 L 441.0 218.0 L 438.0 215.0 L 437.0 215.0 L 436.0 216.0 L 435.0 216.0 L 434.0 217.0 L 433.0 217.0 L 432.0 218.0 L 431.0 218.0 L 430.0 219.0 L 429.0 219.0 L 428.0 220.0 L 427.0 220.0 L 426.0 221.0 L 425.0 221.0 L 424.0 222.0 L 423.0 222.0 L 422.0 223.0 L 421.0 223.0 L 420.0 224.0 L 413.0 227.0 L 413.0 232.0 L 414.0 233.0 L 414.0 239.0 L 415.0 240.0 L 415.0 244.0 L 417.0 246.0 L 422.0 246.0 L 423.0 245.0 L 425.0 247.0 L 425.0 248.0 L 423.0 250.0 L 422.0 250.0 L 421.0 251.0 L 419.0 251.0 L 415.0 254.0 L 414.0 254.0 L 413.0 255.0 L 412.0 255.0 L 411.0 256.0 L 404.0 259.0 L 403.0 258.0 L 403.0 256.0 L 407.0 252.0 L 407.0 238.0 L 406.0 237.0 L 406.0 228.0 L 405.0 227.0 L 405.0 220.0 L 404.0 219.0 L 404.0 210.0 L 403.0 209.0 L 403.0 200.0 L 402.0 199.0 L 402.0 190.0 L 401.0 189.0 L 401.0 181.0 L 400.0 180.0 L 400.0 171.0 L 402.0 169.0 L 403.0 169.0 Z M 556.0 161.0 L 556.0 167.0 L 557.0 168.0 L 557.0 175.0 L 558.0 176.0 L 558.0 181.0 L 559.0 182.0 L 559.0 188.0 L 560.0 189.0 L 560.0 192.0 L 571.0 192.0 L 572.0 191.0 L 577.0 190.0 L 579.0 188.0 L 580.0 188.0 L 584.0 183.0 L 584.0 180.0 L 585.0 179.0 L 585.0 173.0 L 584.0 172.0 L 584.0 169.0 L 583.0 168.0 L 583.0 167.0 L 578.0 162.0 L 577.0 162.0 L 574.0 160.0 L 561.0 160.0 L 560.0 161.0 Z M 758.0 137.0 L 766.0 136.0 L 767.0 135.0 L 777.0 135.0 L 778.0 136.0 L 782.0 136.0 L 783.0 137.0 L 789.0 138.0 L 799.0 143.0 L 807.0 149.0 L 809.0 148.0 L 811.0 148.0 L 812.0 149.0 L 811.0 150.0 L 811.0 152.0 L 807.0 162.0 L 807.0 165.0 L 805.0 169.0 L 803.0 169.0 L 802.0 168.0 L 802.0 162.0 L 799.0 154.0 L 792.0 147.0 L 782.0 143.0 L 769.0 143.0 L 762.0 146.0 L 753.0 155.0 L 748.0 164.0 L 748.0 166.0 L 745.0 173.0 L 745.0 178.0 L 744.0 179.0 L 745.0 191.0 L 749.0 200.0 L 755.0 206.0 L 758.0 207.0 L 762.0 210.0 L 764.0 210.0 L 765.0 211.0 L 778.0 211.0 L 780.0 203.0 L 782.0 200.0 L 782.0 198.0 L 785.0 191.0 L 784.0 188.0 L 778.0 184.0 L 780.0 181.0 L 786.0 184.0 L 797.0 187.0 L 800.0 189.0 L 802.0 189.0 L 806.0 191.0 L 804.0 194.0 L 799.0 194.0 L 797.0 196.0 L 797.0 198.0 L 795.0 201.0 L 795.0 203.0 L 793.0 206.0 L 793.0 208.0 L 789.0 218.0 L 787.0 218.0 L 786.0 219.0 L 772.0 219.0 L 771.0 218.0 L 766.0 218.0 L 765.0 217.0 L 762.0 217.0 L 761.0 216.0 L 756.0 215.0 L 750.0 212.0 L 743.0 207.0 L 736.0 199.0 L 732.0 191.0 L 731.0 185.0 L 730.0 184.0 L 730.0 173.0 L 731.0 172.0 L 731.0 167.0 L 734.0 161.0 L 734.0 159.0 L 739.0 151.0 L 747.0 143.0 Z M 664.0 133.0 L 664.0 134.0 L 661.0 139.0 L 661.0 141.0 L 656.0 150.0 L 656.0 152.0 L 652.0 159.0 L 652.0 161.0 L 651.0 162.0 L 651.0 163.0 L 654.0 163.0 L 655.0 164.0 L 666.0 164.0 L 667.0 165.0 L 673.0 165.0 L 673.0 162.0 L 672.0 161.0 L 672.0 158.0 L 671.0 157.0 L 671.0 155.0 L 670.0 154.0 L 670.0 151.0 L 669.0 150.0 L 669.0 148.0 L 668.0 147.0 L 668.0 144.0 L 667.0 143.0 L 667.0 140.0 L 666.0 139.0 L 666.0 137.0 L 665.0 136.0 L 665.0 133.0 Z M 551.0 126.0 L 551.0 134.0 L 552.0 135.0 L 552.0 141.0 L 553.0 142.0 L 553.0 148.0 L 554.0 149.0 L 554.0 155.0 L 557.0 155.0 L 558.0 154.0 L 562.0 154.0 L 563.0 153.0 L 566.0 153.0 L 570.0 150.0 L 571.0 150.0 L 573.0 148.0 L 573.0 147.0 L 575.0 144.0 L 575.0 136.0 L 574.0 135.0 L 574.0 133.0 L 573.0 132.0 L 573.0 131.0 L 568.0 126.0 L 567.0 126.0 L 566.0 125.0 L 555.0 125.0 L 554.0 126.0 Z M 576.0 119.0 L 577.0 120.0 L 580.0 121.0 L 585.0 125.0 L 585.0 126.0 L 588.0 130.0 L 588.0 133.0 L 589.0 134.0 L 589.0 138.0 L 588.0 139.0 L 588.0 142.0 L 587.0 143.0 L 586.0 146.0 L 580.0 152.0 L 579.0 152.0 L 578.0 153.0 L 578.0 154.0 L 583.0 154.0 L 584.0 155.0 L 586.0 155.0 L 590.0 158.0 L 591.0 158.0 L 596.0 163.0 L 596.0 164.0 L 598.0 167.0 L 598.0 170.0 L 599.0 171.0 L 599.0 178.0 L 598.0 179.0 L 598.0 182.0 L 595.0 186.0 L 595.0 187.0 L 591.0 191.0 L 590.0 191.0 L 588.0 193.0 L 587.0 193.0 L 584.0 195.0 L 582.0 195.0 L 581.0 196.0 L 579.0 196.0 L 578.0 197.0 L 574.0 197.0 L 573.0 198.0 L 568.0 198.0 L 567.0 199.0 L 561.0 199.0 L 560.0 200.0 L 555.0 200.0 L 554.0 201.0 L 548.0 201.0 L 547.0 202.0 L 541.0 202.0 L 540.0 201.0 L 540.0 199.0 L 541.0 198.0 L 544.0 198.0 L 546.0 196.0 L 546.0 185.0 L 545.0 184.0 L 545.0 178.0 L 544.0 177.0 L 544.0 171.0 L 543.0 170.0 L 543.0 165.0 L 542.0 164.0 L 542.0 158.0 L 541.0 157.0 L 541.0 152.0 L 540.0 151.0 L 540.0 145.0 L 539.0 144.0 L 539.0 138.0 L 538.0 137.0 L 538.0 132.0 L 537.0 131.0 L 537.0 129.0 L 535.0 127.0 L 530.0 127.0 L 528.0 125.0 L 530.0 123.0 L 534.0 123.0 L 535.0 122.0 L 540.0 122.0 L 541.0 121.0 L 546.0 121.0 L 547.0 120.0 L 552.0 120.0 L 553.0 119.0 L 558.0 119.0 L 559.0 118.0 L 572.0 118.0 L 573.0 119.0 Z M 666.0 115.0 L 672.0 115.0 L 673.0 116.0 L 673.0 119.0 L 674.0 120.0 L 674.0 122.0 L 675.0 123.0 L 675.0 126.0 L 676.0 127.0 L 676.0 129.0 L 677.0 130.0 L 677.0 133.0 L 678.0 134.0 L 678.0 136.0 L 679.0 137.0 L 679.0 140.0 L 680.0 141.0 L 680.0 143.0 L 681.0 144.0 L 681.0 147.0 L 682.0 148.0 L 682.0 150.0 L 683.0 151.0 L 683.0 154.0 L 684.0 155.0 L 684.0 158.0 L 685.0 159.0 L 685.0 161.0 L 686.0 162.0 L 686.0 165.0 L 687.0 166.0 L 687.0 169.0 L 688.0 170.0 L 688.0 172.0 L 689.0 173.0 L 689.0 176.0 L 690.0 177.0 L 690.0 179.0 L 691.0 180.0 L 691.0 182.0 L 692.0 183.0 L 692.0 186.0 L 693.0 187.0 L 693.0 189.0 L 694.0 190.0 L 694.0 191.0 L 697.0 194.0 L 698.0 194.0 L 701.0 196.0 L 701.0 198.0 L 700.0 199.0 L 699.0 198.0 L 691.0 198.0 L 690.0 197.0 L 679.0 197.0 L 678.0 196.0 L 673.0 196.0 L 672.0 195.0 L 672.0 194.0 L 674.0 192.0 L 678.0 192.0 L 679.0 191.0 L 679.0 185.0 L 678.0 184.0 L 678.0 181.0 L 677.0 180.0 L 677.0 177.0 L 676.0 176.0 L 676.0 173.0 L 675.0 172.0 L 665.0 172.0 L 664.0 171.0 L 653.0 171.0 L 652.0 170.0 L 647.0 170.0 L 647.0 171.0 L 645.0 174.0 L 645.0 176.0 L 644.0 177.0 L 644.0 178.0 L 642.0 181.0 L 642.0 183.0 L 641.0 184.0 L 641.0 188.0 L 643.0 190.0 L 646.0 190.0 L 647.0 191.0 L 647.0 193.0 L 646.0 194.0 L 638.0 194.0 L 637.0 193.0 L 624.0 193.0 L 623.0 192.0 L 623.0 190.0 L 624.0 189.0 L 627.0 189.0 L 628.0 188.0 L 629.0 188.0 L 632.0 185.0 L 632.0 184.0 L 633.0 183.0 L 633.0 182.0 L 634.0 181.0 L 634.0 180.0 L 635.0 179.0 L 635.0 178.0 L 643.0 163.0 L 643.0 161.0 L 644.0 160.0 L 644.0 159.0 L 645.0 158.0 L 645.0 157.0 L 646.0 156.0 L 646.0 155.0 L 654.0 140.0 L 654.0 138.0 L 662.0 123.0 L 662.0 121.0 L 663.0 120.0 L 664.0 117.0 Z M 611.0 89.0 L 565.0 93.0 L 519.0 101.0 L 462.0 117.0 L 410.0 138.0 L 360.0 165.0 L 317.0 194.0 L 283.0 222.0 L 250.0 254.0 L 218.0 291.0 L 189.0 332.0 L 169.0 366.0 L 141.0 427.0 L 127.0 468.0 L 113.0 527.0 L 106.0 585.0 L 105.0 635.0 L 109.0 686.0 L 121.0 751.0 L 137.0 804.0 L 153.0 843.0 L 179.0 893.0 L 206.0 934.0 L 240.0 976.0 L 271.0 1007.0 L 314.0 1043.0 L 352.0 1069.0 L 409.0 1100.0 L 455.0 1119.0 L 492.0 1131.0 L 554.0 1144.0 L 608.0 1149.0 L 650.0 1149.0 L 702.0 1144.0 L 751.0 1134.0 L 800.0 1119.0 L 844.0 1101.0 L 888.0 1078.0 L 934.0 1048.0 L 975.0 1015.0 L 1015.0 975.0 L 1044.0 939.0 L 1075.0 892.0 L 1093.0 859.0 L 1117.0 802.0 L 1130.0 760.0 L 1141.0 707.0 L 1147.0 655.0 L 1148.0 607.0 L 1143.0 546.0 L 1134.0 497.0 L 1122.0 453.0 L 1101.0 398.0 L 1078.0 352.0 L 1048.0 305.0 L 1010.0 257.0 L 980.0 226.0 L 949.0 199.0 L 909.0 170.0 L 870.0 147.0 L 812.0 121.0 L 768.0 107.0 L 712.0 95.0 L 667.0 90.0 Z M 615.0 79.0 L 668.0 80.0 L 712.0 85.0 L 772.0 98.0 L 816.0 112.0 L 850.0 126.0 L 907.0 157.0 L 947.0 185.0 L 977.0 210.0 L 1023.0 257.0 L 1056.0 299.0 L 1082.0 339.0 L 1107.0 387.0 L 1125.0 431.0 L 1144.0 496.0 L 1154.0 554.0 L 1158.0 612.0 L 1157.0 653.0 L 1149.0 720.0 L 1140.0 761.0 L 1124.0 812.0 L 1102.0 863.0 L 1075.0 911.0 L 1048.0 950.0 L 1018.0 986.0 L 985.0 1019.0 L 941.0 1055.0 L 897.0 1084.0 L 852.0 1108.0 L 801.0 1129.0 L 743.0 1146.0 L 693.0 1155.0 L 646.0 1159.0 L 592.0 1158.0 L 537.0 1151.0 L 489.0 1140.0 L 443.0 1125.0 L 399.0 1106.0 L 345.0 1076.0 L 306.0 1049.0 L 260.0 1010.0 L 228.0 977.0 L 196.0 937.0 L 167.0 892.0 L 143.0 845.0 L 129.0 811.0 L 111.0 753.0 L 101.0 702.0 L 95.0 635.0 L 97.0 572.0 L 104.0 520.0 L 114.0 477.0 L 130.0 428.0 L 146.0 390.0 L 176.0 334.0 L 199.0 300.0 L 232.0 259.0 L 260.0 230.0 L 304.0 192.0 L 348.0 161.0 L 396.0 134.0 L 442.0 114.0 L 498.0 96.0 L 551.0 85.0 Z M 608.0 69.0 L 549.0 75.0 L 504.0 84.0 L 450.0 100.0 L 406.0 118.0 L 351.0 147.0 L 311.0 174.0 L 270.0 207.0 L 233.0 243.0 L 199.0 283.0 L 162.0 337.0 L 141.0 376.0 L 118.0 430.0 L 102.0 481.0 L 91.0 535.0 L 86.0 580.0 L 85.0 643.0 L 89.0 691.0 L 100.0 751.0 L 112.0 794.0 L 136.0 855.0 L 158.0 897.0 L 192.0 949.0 L 226.0 990.0 L 261.0 1025.0 L 305.0 1061.0 L 348.0 1090.0 L 402.0 1119.0 L 451.0 1139.0 L 514.0 1157.0 L 557.0 1165.0 L 601.0 1169.0 L 656.0 1169.0 L 706.0 1164.0 L 762.0 1152.0 L 801.0 1140.0 L 855.0 1118.0 L 904.0 1092.0 L 942.0 1067.0 L 988.0 1030.0 L 1030.0 988.0 L 1058.0 954.0 L 1091.0 905.0 L 1122.0 845.0 L 1137.0 807.0 L 1155.0 744.0 L 1162.0 706.0 L 1167.0 660.0 L 1168.0 599.0 L 1163.0 541.0 L 1153.0 488.0 L 1138.0 435.0 L 1117.0 383.0 L 1092.0 335.0 L 1061.0 288.0 L 1029.0 248.0 L 986.0 204.0 L 959.0 181.0 L 906.0 144.0 L 851.0 115.0 L 819.0 102.0 L 771.0 87.0 L 714.0 75.0 L 655.0 69.0 Z " fill="#011818" fill-rule="evenodd"/>
</svg>
